<svg width="96" height="96" viewBox="0 0 96 96" fill="none" xmlns="http://www.w3.org/2000/svg">
<path d="M13.856 13.856C19.72 8 29.144 8 48 8C66.856 8 76.284 8 82.14 13.856C88 19.72 88 29.144 88 48C88 66.856 88 76.284 82.14 82.14C76.288 88 66.856 88 48 88C29.144 88 19.716 88 13.856 82.14C8 76.288 8 66.856 8 48C8 29.144 8 19.716 13.856 13.856Z" fill="url(#paint0_linear_1_133)"/>
<path d="M35.856 27.452C44.808 18.852 59.28 18.852 68.232 27.452C70.3685 29.4742 72.0702 31.9109 73.2332 34.6131C74.3961 37.3152 74.996 40.2262 74.996 43.168C74.996 46.1098 74.3961 49.0207 73.2332 51.7228C72.0702 54.425 70.3685 56.8617 68.232 58.884L59.416 67.356C56.9506 69.696 53.6811 71.0005 50.282 71.0005C46.8829 71.0005 43.6134 69.696 41.148 67.356C39.934 66.2048 38.9671 64.8185 38.3064 63.2815C37.6457 61.7444 37.305 60.089 37.305 58.416C37.305 56.7429 37.6457 55.0875 38.3064 53.5504C38.9671 52.0134 39.934 50.6271 41.148 49.476L48.204 42.7C48.4851 42.4135 48.8209 42.1864 49.1913 42.032C49.5618 41.8777 49.9595 41.7992 50.3608 41.8013C50.7621 41.8034 51.159 41.886 51.5278 42.0442C51.8966 42.2024 52.23 42.433 52.5081 42.7224C52.7862 43.0117 53.0034 43.3539 53.1469 43.7288C53.2904 44.1036 53.3572 44.5034 53.3434 44.9045C53.3296 45.3056 53.2354 45.6998 53.0665 46.0639C52.8976 46.4279 52.6574 46.7544 52.36 47.024L45.304 53.804C44.6731 54.3951 44.1701 55.1094 43.8263 55.9027C43.4825 56.696 43.3051 57.5514 43.3051 58.416C43.3051 59.2805 43.4825 60.1359 43.8263 60.9292C44.1701 61.7225 44.6731 62.4368 45.304 63.028C46.653 64.2912 48.4319 64.994 50.28 64.994C52.1281 64.994 53.907 64.2912 55.256 63.028L64.076 54.56C65.6307 53.0976 66.8695 51.3324 67.7164 49.3733C68.5632 47.4141 69 45.3023 69 43.168C69 41.0336 68.5632 38.9218 67.7164 36.9626C66.8695 35.0035 65.6307 33.2383 64.076 31.776C57.444 25.408 46.644 25.408 40.012 31.776L31.192 40.248C29.8683 41.4924 28.8135 42.9946 28.0924 44.6621C27.3714 46.3297 26.9994 48.1272 26.9994 49.944C26.9994 51.7607 27.3714 53.5582 28.0924 55.2258C28.8135 56.8933 29.8683 58.3956 31.192 59.64C31.7659 60.1911 32.0974 60.9476 32.1136 61.7431C32.1297 62.5387 31.8291 63.308 31.278 63.882C30.7269 64.4559 29.9704 64.7874 29.1748 64.8035C28.3793 64.8196 27.6099 64.5191 27.036 63.968C25.1293 62.1636 23.6105 59.9893 22.5726 57.578C21.5346 55.1667 20.9993 52.5691 20.9993 49.944C20.9993 47.3188 21.5346 44.7212 22.5726 42.3099C23.6105 39.8986 25.1293 37.7244 27.036 35.92L35.856 27.452Z" fill="white"/>
<defs>
<linearGradient id="paint0_linear_1_133" x1="8" y1="8" x2="88" y2="88" gradientUnits="userSpaceOnUse">
<stop stop-color="#155DFC"/>
<stop offset="1" stop-color="#1447E6"/>
</linearGradient>
</defs>
</svg>
