<svg width="56" height="56" viewBox="0 0 56 56" fill="none" xmlns="http://www.w3.org/2000/svg">
<path d="M0 28C0 12.536 12.536 0 28 0C43.464 0 56 12.536 56 28C56 43.464 43.464 56 28 56C12.536 56 0 43.464 0 28Z" fill="#4F39F6"/>
<path d="M20 41.3333C19.2927 41.3333 18.6145 41.0524 18.1144 40.5523C17.6143 40.0522 17.3333 39.3739 17.3333 38.6667V17.3333C17.3333 16.6261 17.6143 15.9478 18.1144 15.4477C18.6145 14.9476 19.2927 14.6667 20 14.6667H30.6666C31.0887 14.666 31.5068 14.7488 31.8967 14.9104C32.2866 15.0719 32.6407 15.309 32.9386 15.608L37.7226 20.392C38.0224 20.69 38.2602 21.0445 38.4222 21.4349C38.5843 21.8253 38.6673 22.244 38.6666 22.6667V38.6667C38.6666 39.3739 38.3857 40.0522 37.8856 40.5523C37.3855 41.0524 36.7072 41.3333 36 41.3333H20Z" stroke="white" stroke-width="2.66667" stroke-linecap="round" stroke-linejoin="round"/>
<path d="M30.6667 14.6667V21.3333C30.6667 21.687 30.8072 22.0261 31.0572 22.2761C31.3073 22.5262 31.6464 22.6667 32 22.6667H38.6667" stroke="white" stroke-width="2.66667" stroke-linecap="round" stroke-linejoin="round"/>
<path d="M25.3334 24H22.6667" stroke="white" stroke-width="2.66667" stroke-linecap="round" stroke-linejoin="round"/>
<path d="M33.3334 29.3333H22.6667" stroke="white" stroke-width="2.66667" stroke-linecap="round" stroke-linejoin="round"/>
<path d="M33.3334 34.6667H22.6667" stroke="white" stroke-width="2.66667" stroke-linecap="round" stroke-linejoin="round"/>
</svg>
