<svg width="599" height="286" viewBox="0 0 599 286" fill="none" xmlns="http://www.w3.org/2000/svg">
<g filter="url(#filter0_d_1_128)">
<mask id="path-1-inside-1_1_128" fill="white">
<path d="M38 37C38 23.7452 48.7452 13 62 13H536.725C549.98 13 560.725 23.7452 560.725 37V198.6C560.725 211.855 549.98 222.6 536.725 222.6H62C48.7452 222.6 38 211.855 38 198.6V37Z"/>
</mask>
<path d="M38 37C38 23.7452 48.7452 13 62 13H536.725C549.98 13 560.725 23.7452 560.725 37V198.6C560.725 211.855 549.98 222.6 536.725 222.6H62C48.7452 222.6 38 211.855 38 198.6V37Z" fill="white" shape-rendering="crispEdges"/>
<path d="M62 13V13.8H536.725V13V12.2H62V13ZM560.725 37H559.925V198.6H560.725H561.525V37H560.725ZM536.725 222.6V221.8H62V222.6V223.4H536.725V222.6ZM38 198.6H38.8V37H38H37.2V198.6H38ZM62 222.6V221.8C49.187 221.8 38.8 211.413 38.8 198.6H38H37.2C37.2 212.297 48.3033 223.4 62 223.4V222.6ZM560.725 198.6H559.925C559.925 211.413 549.538 221.8 536.725 221.8V222.6V223.4C550.422 223.4 561.525 212.297 561.525 198.6H560.725ZM536.725 13V13.8C549.538 13.8 559.925 24.187 559.925 37H560.725H561.525C561.525 23.3033 550.422 12.2 536.725 12.2V13ZM62 13V12.2C48.3033 12.2 37.2 23.3033 37.2 37H38H38.8C38.8 24.187 49.187 13.8 62 13.8V13Z" fill="#E2E8F0" mask="url(#path-1-inside-1_1_128)"/>
<path d="M247.448 101.042C247.448 104.573 246.761 107.589 245.386 110.089C244.027 112.589 242.136 114.503 239.714 115.831C237.308 117.144 234.527 117.8 231.37 117.8H218.011V84.7766H229.964C235.527 84.7766 239.831 86.1829 242.878 88.9954C245.925 91.7922 247.448 95.8079 247.448 101.042ZM240.487 101.042C240.487 97.4954 239.566 94.7922 237.722 92.9329C235.878 91.0579 233.245 90.1204 229.823 90.1204H224.925V112.456H230.784C232.769 112.456 234.48 111.995 235.917 111.073C237.37 110.136 238.495 108.816 239.292 107.113C240.089 105.409 240.487 103.386 240.487 101.042ZM275.733 105.097C275.733 109.206 274.592 112.433 272.311 114.777C270.03 117.105 266.873 118.269 262.842 118.269C258.889 118.269 255.787 117.097 253.537 114.753C251.287 112.409 250.162 109.191 250.162 105.097C250.162 101.019 251.287 97.8157 253.537 95.4875C255.787 93.1438 258.936 91.9719 262.983 91.9719C267.123 91.9719 270.28 93.1047 272.452 95.3704C274.639 97.6204 275.733 100.863 275.733 105.097ZM268.842 105.097C268.842 102.081 268.35 99.8938 267.366 98.5344C266.381 97.175 264.952 96.4954 263.077 96.4954C261.077 96.4954 259.577 97.2141 258.577 98.6516C257.577 100.073 257.077 102.222 257.077 105.097C257.077 107.925 257.561 110.081 258.53 111.566C259.514 113.034 260.928 113.769 262.772 113.769C264.803 113.769 266.319 113.05 267.319 111.613C268.334 110.159 268.842 107.988 268.842 105.097ZM290.353 118.269C286.509 118.269 283.541 117.128 281.447 114.847C279.353 112.55 278.306 109.355 278.306 105.261C278.306 101.073 279.361 97.8157 281.47 95.4875C283.58 93.1438 286.572 91.9719 290.447 91.9719C293.431 91.9719 295.9 92.7219 297.853 94.2219C299.806 95.7219 301.033 97.7922 301.533 100.433L294.9 100.761C294.712 99.4641 294.244 98.4329 293.494 97.6672C292.744 96.886 291.681 96.4954 290.306 96.4954C288.603 96.4954 287.33 97.2063 286.486 98.6282C285.642 100.034 285.22 102.159 285.22 105.003C285.22 107.925 285.65 110.12 286.509 111.589C287.384 113.042 288.681 113.769 290.4 113.769C291.65 113.769 292.697 113.378 293.541 112.597C294.384 111.8 294.908 110.62 295.111 109.058L301.72 109.363C301.486 111.144 300.853 112.706 299.822 114.05C298.806 115.378 297.486 116.417 295.861 117.167C294.236 117.902 292.4 118.269 290.353 118.269ZM326.677 110.394C326.677 112.847 325.669 114.777 323.653 116.183C321.653 117.573 318.88 118.269 315.333 118.269C311.848 118.269 309.177 117.722 307.317 116.628C305.473 115.519 304.247 113.8 303.637 111.472L309.427 110.605C309.755 111.808 310.317 112.659 311.114 113.159C311.927 113.659 313.333 113.909 315.333 113.909C317.177 113.909 318.52 113.675 319.364 113.206C320.208 112.738 320.63 112.003 320.63 111.003C320.63 110.191 320.286 109.55 319.598 109.081C318.927 108.597 317.778 108.191 316.153 107.863C314.919 107.613 313.809 107.37 312.825 107.136C311.856 106.902 311.02 106.675 310.317 106.456C309.63 106.222 309.067 106.003 308.63 105.8C307.333 105.159 306.341 104.339 305.653 103.339C304.981 102.339 304.645 101.105 304.645 99.636C304.645 97.2141 305.575 95.3313 307.434 93.9875C309.309 92.6282 311.958 91.9485 315.38 91.9485C318.395 91.9485 320.817 92.5344 322.645 93.7063C324.489 94.8782 325.637 96.5735 326.091 98.7922L320.255 99.4016C320.067 98.3704 319.606 97.6047 318.872 97.1047C318.137 96.5891 316.973 96.3313 315.38 96.3313C313.817 96.3313 312.645 96.5344 311.864 96.9407C311.083 97.3313 310.692 97.9954 310.692 98.9329C310.692 99.6672 310.989 100.253 311.583 100.691C312.192 101.113 313.208 101.464 314.63 101.745C316.614 102.152 318.372 102.573 319.903 103.011C321.45 103.433 322.692 103.941 323.63 104.534C324.552 105.128 325.286 105.894 325.833 106.831C326.395 107.753 326.677 108.941 326.677 110.394Z" fill="#0F172B"/>
<path d="M336.82 97.7844V117.8H330.68V84.7766H339.937L345.844 103.245C346.109 104.277 346.383 105.316 346.664 106.363C346.945 107.394 347.219 108.425 347.484 109.456C347.656 108.863 347.82 108.277 347.977 107.698C348.133 107.105 348.289 106.511 348.445 105.917C348.617 105.323 348.789 104.738 348.961 104.159L355.031 84.7766H364.242V117.8H358.102V97.7844C358.102 97.3313 358.117 96.425 358.148 95.0657C358.195 93.6907 358.258 92.1985 358.336 90.5891C357.789 92.6829 357.305 94.4641 356.883 95.9329C356.477 97.4016 356.141 98.55 355.875 99.3782L349.922 117.8H345L339.047 99.3782L336.539 90.5891C336.633 92.4016 336.703 93.9094 336.75 95.1125C336.797 96.3 336.82 97.1907 336.82 97.7844ZM375.464 118.269C373.011 118.269 371.097 117.605 369.722 116.277C368.347 114.933 367.659 113.05 367.659 110.628C367.659 108.003 368.511 106.011 370.214 104.652C371.933 103.292 374.417 102.581 377.667 102.519L383.128 102.425V101.136C383.128 99.4797 382.839 98.2532 382.261 97.4563C381.683 96.6438 380.737 96.2375 379.425 96.2375C378.206 96.2375 377.308 96.5188 376.73 97.0813C376.167 97.6282 375.816 98.5422 375.675 99.8235L368.808 99.4954C369.667 94.4797 373.3 91.9719 379.706 91.9719C382.909 91.9719 385.378 92.761 387.112 94.3391C388.847 95.9172 389.714 98.1594 389.714 101.066V110.3C389.714 111.722 389.87 112.706 390.183 113.253C390.511 113.784 391.05 114.05 391.8 114.05C392.3 114.05 392.784 114.003 393.253 113.909V117.472C392.441 117.675 391.745 117.823 391.167 117.917C390.589 118.027 389.878 118.081 389.034 118.081C387.378 118.081 386.152 117.675 385.355 116.863C384.573 116.05 384.105 114.855 383.948 113.277H383.808C382.886 114.933 381.73 116.183 380.339 117.027C378.948 117.855 377.323 118.269 375.464 118.269ZM383.128 106.058L379.753 106.105C378.206 106.183 377.12 106.347 376.495 106.597C375.855 106.878 375.362 107.3 375.019 107.863C374.691 108.425 374.527 109.175 374.527 110.113C374.527 111.316 374.8 112.214 375.347 112.808C375.909 113.386 376.652 113.675 377.573 113.675C378.605 113.675 379.55 113.394 380.409 112.831C381.253 112.269 381.917 111.495 382.402 110.511C382.886 109.511 383.128 108.456 383.128 107.347V106.058ZM401.709 104.206V117.8H395.123V98.1125C395.123 96.7532 395.1 95.6438 395.053 94.7844C395.022 93.9094 394.983 93.1282 394.936 92.4407H401.217C401.248 92.6282 401.287 93.0735 401.334 93.7766C401.381 94.4641 401.42 95.175 401.452 95.9094C401.498 96.6282 401.522 97.1516 401.522 97.4797H401.616C402.506 95.5422 403.623 94.136 404.967 93.261C406.311 92.386 407.912 91.9485 409.772 91.9485C412.459 91.9485 414.522 92.7766 415.959 94.4329C417.397 96.0891 418.116 98.511 418.116 101.698V117.8H411.553V103.573C411.553 101.339 411.178 99.6672 410.428 98.5579C409.678 97.4485 408.545 96.8938 407.03 96.8938C405.436 96.8938 404.147 97.5813 403.162 98.9563C402.194 100.316 401.709 102.066 401.709 104.206ZM429.127 118.269C426.673 118.269 424.759 117.605 423.384 116.277C422.009 114.933 421.322 113.05 421.322 110.628C421.322 108.003 422.173 106.011 423.877 104.652C425.595 103.292 428.08 102.581 431.33 102.519L436.791 102.425V101.136C436.791 99.4797 436.502 98.2532 435.923 97.4563C435.345 96.6438 434.4 96.2375 433.087 96.2375C431.869 96.2375 430.97 96.5188 430.392 97.0813C429.83 97.6282 429.478 98.5422 429.337 99.8235L422.47 99.4954C423.33 94.4797 426.962 91.9719 433.369 91.9719C436.572 91.9719 439.041 92.761 440.775 94.3391C442.509 95.9172 443.377 98.1594 443.377 101.066V110.3C443.377 111.722 443.533 112.706 443.845 113.253C444.173 113.784 444.712 114.05 445.462 114.05C445.962 114.05 446.447 114.003 446.916 113.909V117.472C446.103 117.675 445.408 117.823 444.83 117.917C444.252 118.027 443.541 118.081 442.697 118.081C441.041 118.081 439.814 117.675 439.017 116.863C438.236 116.05 437.767 114.855 437.611 113.277H437.47C436.548 114.933 435.392 116.183 434.002 117.027C432.611 117.855 430.986 118.269 429.127 118.269ZM436.791 106.058L433.416 106.105C431.869 106.183 430.783 106.347 430.158 106.597C429.517 106.878 429.025 107.3 428.681 107.863C428.353 108.425 428.189 109.175 428.189 110.113C428.189 111.316 428.462 112.214 429.009 112.808C429.572 113.386 430.314 113.675 431.236 113.675C432.267 113.675 433.212 113.394 434.072 112.831C434.916 112.269 435.58 111.495 436.064 110.511C436.548 109.511 436.791 108.456 436.791 107.347V106.058ZM459.403 127.972C456.309 127.972 453.817 127.378 451.927 126.191C450.052 125.019 448.895 123.339 448.458 121.152L455.044 120.378C455.278 121.394 455.778 122.191 456.544 122.769C457.325 123.347 458.341 123.636 459.591 123.636C461.419 123.636 462.755 123.073 463.598 121.948C464.442 120.823 464.864 119.152 464.864 116.933L464.911 113.089H464.864C464.145 114.652 463.106 115.823 461.747 116.605C460.387 117.37 458.708 117.753 456.708 117.753C453.755 117.753 451.466 116.644 449.841 114.425C448.216 112.206 447.403 109.034 447.403 104.909C447.403 100.769 448.239 97.5735 449.911 95.3235C451.583 93.0735 454.012 91.9485 457.2 91.9485C459.044 91.9485 460.598 92.3313 461.864 93.0969C463.145 93.8469 464.145 94.9875 464.864 96.5188H464.981C464.981 96.1438 464.997 95.675 465.028 95.1125C465.059 94.55 465.098 94.011 465.145 93.4954C465.208 92.9797 465.262 92.6282 465.309 92.4407H471.544C471.45 94.1282 471.403 96.0813 471.403 98.3V117.027C471.403 120.636 470.38 123.363 468.333 125.206C466.286 127.05 463.309 127.972 459.403 127.972ZM464.911 104.769C464.911 102.159 464.442 100.128 463.505 98.675C462.583 97.2063 461.262 96.4719 459.544 96.4719C457.794 96.4719 456.473 97.175 455.583 98.5813C454.708 99.9875 454.27 102.097 454.27 104.909C454.27 107.659 454.7 109.73 455.559 111.12C456.434 112.495 457.747 113.183 459.497 113.183C461.247 113.183 462.583 112.456 463.505 111.003C464.442 109.534 464.911 107.456 464.911 104.769ZM482.367 106.386C482.367 108.855 482.82 110.722 483.727 111.988C484.648 113.238 485.953 113.863 487.641 113.863C488.797 113.863 489.742 113.613 490.477 113.113C491.227 112.597 491.75 111.839 492.047 110.839L498.258 111.378C496.461 115.972 492.812 118.269 487.312 118.269C483.5 118.269 480.57 117.144 478.523 114.894C476.477 112.628 475.453 109.331 475.453 105.003C475.453 100.816 476.492 97.5969 478.57 95.3469C480.648 93.0969 483.594 91.9719 487.406 91.9719C491.047 91.9719 493.828 93.1829 495.75 95.6047C497.672 98.011 498.633 101.542 498.633 106.198V106.386H482.367ZM492.258 102.261C492.133 100.214 491.641 98.6829 490.781 97.6672C489.922 96.636 488.766 96.1204 487.312 96.1204C485.766 96.1204 484.57 96.6594 483.727 97.7375C482.898 98.8157 482.461 100.323 482.414 102.261H492.258ZM509.034 105.355V117.8H502.448V98.3938C502.448 97.0032 502.425 95.8469 502.378 94.925C502.347 93.9875 502.308 93.1594 502.261 92.4407H508.542C508.573 92.5813 508.605 92.8938 508.636 93.3782C508.667 93.8625 508.698 94.4094 508.73 95.0188C508.761 95.6125 508.784 96.175 508.8 96.7063C508.831 97.2375 508.847 97.6204 508.847 97.8547H508.941C509.566 96.1047 510.136 94.8469 510.652 94.0813C511.152 93.3469 511.745 92.8079 512.433 92.4641C513.12 92.1204 513.98 91.9485 515.011 91.9485C515.855 91.9485 516.534 92.0657 517.05 92.3V97.8079C516.003 97.5735 515.066 97.4563 514.237 97.4563C512.597 97.4563 511.316 98.1204 510.394 99.4485C509.487 100.777 509.034 102.745 509.034 105.355Z" fill="#155DFC"/>
<path d="M223.495 139.941C223.495 140.83 223.147 141.518 222.449 142.005C221.757 142.493 220.779 142.737 219.517 142.737C217.17 142.737 215.809 141.921 215.436 140.29L216.7 140.037C216.846 140.615 217.156 141.042 217.63 141.315C218.104 141.584 218.749 141.718 219.565 141.718C220.408 141.718 221.057 141.575 221.513 141.288C221.973 140.996 222.203 140.57 222.203 140.009C222.203 139.695 222.13 139.44 221.985 139.244C221.843 139.048 221.643 138.886 221.383 138.758C221.123 138.631 220.813 138.524 220.453 138.437C220.093 138.35 219.695 138.257 219.257 138.157C218.751 138.043 218.327 137.931 217.986 137.822C217.648 137.712 217.37 137.598 217.152 137.48C216.933 137.357 216.746 137.227 216.591 137.09C216.363 136.881 216.188 136.637 216.065 136.359C215.946 136.081 215.887 135.762 215.887 135.402C215.887 134.577 216.201 133.941 216.83 133.495C217.464 133.048 218.368 132.825 219.544 132.825C220.638 132.825 221.474 132.993 222.053 133.331C222.632 133.663 223.037 134.233 223.27 135.04L221.985 135.265C221.843 134.755 221.574 134.386 221.178 134.158C220.781 133.925 220.232 133.809 219.53 133.809C218.76 133.809 218.172 133.937 217.767 134.192C217.361 134.447 217.158 134.828 217.158 135.333C217.158 135.63 217.236 135.876 217.391 136.072C217.55 136.263 217.778 136.425 218.074 136.557C218.352 136.689 218.943 136.856 219.845 137.056C220.214 137.143 220.579 137.234 220.939 137.33C221.299 137.421 221.638 137.537 221.957 137.678C222.144 137.756 222.322 137.851 222.49 137.965C222.664 138.075 222.814 138.202 222.942 138.348C223.115 138.54 223.249 138.765 223.345 139.025C223.445 139.285 223.495 139.59 223.495 139.941ZM226.655 132.456V133.631H225.424V132.456H226.655ZM226.655 135.204V142.6H225.424V135.204H226.655ZM234.449 140.556C234.449 141.253 234.185 141.791 233.656 142.169C233.132 142.548 232.396 142.737 231.448 142.737C230.528 142.737 229.817 142.586 229.315 142.286C228.819 141.98 228.495 141.506 228.345 140.864L229.432 140.652C229.536 141.048 229.753 141.34 230.081 141.527C230.409 141.709 230.865 141.8 231.448 141.8C232.073 141.8 232.528 141.705 232.815 141.513C233.107 141.322 233.253 141.035 233.253 140.652C233.253 140.36 233.153 140.123 232.952 139.941C232.752 139.759 232.428 139.608 231.981 139.49C231.453 139.348 231.031 139.232 230.717 139.141C230.407 139.05 230.168 138.972 229.999 138.909C229.83 138.84 229.696 138.777 229.596 138.717C229.295 138.544 229.06 138.332 228.892 138.082C228.723 137.831 228.639 137.523 228.639 137.159C228.639 136.484 228.878 135.972 229.356 135.621C229.84 135.265 230.541 135.087 231.462 135.087C232.278 135.087 232.925 135.231 233.403 135.518C233.886 135.805 234.192 136.265 234.319 136.899L233.212 137.036C233.144 136.708 232.959 136.457 232.658 136.284C232.362 136.106 231.963 136.017 231.462 136.017C230.906 136.017 230.496 136.101 230.231 136.27C229.967 136.439 229.835 136.694 229.835 137.036C229.835 137.286 229.91 137.494 230.061 137.658C230.211 137.817 230.498 137.949 230.922 138.054C231.492 138.191 232.034 138.341 232.549 138.505C233.064 138.665 233.433 138.824 233.656 138.984C233.916 139.171 234.112 139.392 234.244 139.647C234.381 139.898 234.449 140.201 234.449 140.556ZM239.092 142.545C238.691 142.655 238.276 142.709 237.848 142.709C237.356 142.709 236.987 142.57 236.741 142.292C236.495 142.01 236.371 141.591 236.371 141.035V136.099H235.517V135.204H236.419L236.782 133.549H237.602V135.204H238.969V136.099H237.602V140.768C237.602 141.124 237.659 141.374 237.773 141.52C237.891 141.661 238.094 141.732 238.381 141.732C238.536 141.732 238.773 141.7 239.092 141.636V142.545ZM241.438 139.162C241.438 140.009 241.614 140.663 241.965 141.124C242.316 141.584 242.828 141.814 243.503 141.814C244.036 141.814 244.462 141.707 244.781 141.493C245.105 141.278 245.323 141.007 245.437 140.679L246.517 140.987C246.075 142.153 245.07 142.737 243.503 142.737C242.409 142.737 241.575 142.411 241.001 141.759C240.431 141.108 240.146 140.139 240.146 138.854C240.146 137.633 240.431 136.696 241.001 136.044C241.575 135.393 242.393 135.067 243.455 135.067C244.544 135.067 245.36 135.395 245.902 136.051C246.444 136.708 246.716 137.69 246.716 138.998V139.162H241.438ZM245.444 138.218C245.376 137.439 245.178 136.872 244.849 136.516C244.521 136.156 244.05 135.976 243.434 135.976C242.837 135.976 242.363 136.177 242.012 136.578C241.666 136.974 241.479 137.521 241.452 138.218H245.444ZM249.889 138.314V142.6H248.665V136.783C248.665 136.35 248.661 136.003 248.652 135.744C248.647 135.479 248.638 135.299 248.624 135.204H249.786C249.795 135.304 249.805 135.427 249.814 135.573C249.823 135.719 249.83 135.871 249.834 136.031C249.839 136.186 249.841 136.332 249.841 136.468H249.862C250.126 135.944 250.429 135.58 250.771 135.375C251.112 135.169 251.529 135.067 252.022 135.067C252.582 135.067 253.024 135.179 253.348 135.402C253.676 135.625 253.904 135.981 254.031 136.468H254.052C254.307 135.972 254.615 135.614 254.975 135.395C255.339 135.176 255.779 135.067 256.294 135.067C257.042 135.067 257.584 135.27 257.921 135.675C258.263 136.081 258.434 136.746 258.434 137.671V142.6H257.217V137.911C257.217 137.195 257.119 136.701 256.923 136.427C256.727 136.154 256.374 136.017 255.863 136.017C255.326 136.017 254.906 136.218 254.606 136.619C254.309 137.015 254.161 137.58 254.161 138.314V142.6H252.945V137.911C252.945 137.195 252.847 136.701 252.651 136.427C252.455 136.154 252.101 136.017 251.591 136.017C251.067 136.017 250.652 136.218 250.347 136.619C250.042 137.02 249.889 137.585 249.889 138.314ZM262.537 142.737C261.794 142.737 261.236 142.541 260.862 142.149C260.488 141.757 260.301 141.219 260.301 140.536C260.301 139.77 260.552 139.182 261.053 138.772C261.559 138.362 262.373 138.143 263.494 138.116L265.155 138.088V137.685C265.155 137.083 265.027 136.653 264.772 136.393C264.517 136.133 264.116 136.003 263.569 136.003C263.017 136.003 262.616 136.097 262.366 136.284C262.115 136.471 261.965 136.769 261.915 137.179L260.629 137.063C260.839 135.732 261.828 135.067 263.596 135.067C264.526 135.067 265.226 135.281 265.695 135.709C266.164 136.133 266.399 136.749 266.399 137.555V140.741C266.399 141.105 266.447 141.381 266.543 141.568C266.638 141.75 266.821 141.841 267.089 141.841C267.217 141.841 267.351 141.825 267.493 141.793V142.559C267.338 142.596 267.181 142.623 267.021 142.641C266.862 142.659 266.702 142.668 266.543 142.668C266.087 142.668 265.754 142.55 265.545 142.313C265.339 142.071 265.223 141.695 265.196 141.185H265.155C264.84 141.75 264.474 142.151 264.054 142.388C263.64 142.621 263.134 142.737 262.537 142.737ZM265.155 138.95L263.808 138.977C263.234 138.982 262.796 139.041 262.496 139.155C262.195 139.264 261.965 139.433 261.805 139.661C261.646 139.889 261.566 140.187 261.566 140.556C261.566 140.957 261.673 141.267 261.887 141.486C262.106 141.705 262.416 141.814 262.817 141.814C263.273 141.814 263.674 141.711 264.02 141.506C264.371 141.301 264.647 141.021 264.847 140.666C265.052 140.306 265.155 139.936 265.155 139.558V138.95ZM275.842 145.505C275.036 145.505 274.393 145.346 273.914 145.027C273.436 144.712 273.128 144.264 272.992 143.68L274.229 143.502C274.311 143.844 274.491 144.106 274.769 144.289C275.051 144.475 275.421 144.569 275.876 144.569C276.487 144.569 276.945 144.389 277.25 144.029C277.56 143.669 277.715 143.131 277.715 142.416V141.226H277.702C277.469 141.7 277.15 142.058 276.745 142.299C276.339 142.536 275.865 142.655 275.323 142.655C274.416 142.655 273.748 142.354 273.32 141.752C272.896 141.151 272.684 140.205 272.684 138.916C272.684 137.608 272.912 136.644 273.368 136.024C273.828 135.4 274.525 135.087 275.459 135.087C275.983 135.087 276.437 135.208 276.82 135.45C277.207 135.687 277.506 136.026 277.715 136.468H277.729C277.729 136.377 277.733 136.236 277.743 136.044C277.752 135.848 277.763 135.664 277.777 135.491C277.79 135.318 277.802 135.222 277.811 135.204H278.98C278.953 135.45 278.939 135.96 278.939 136.735V142.388C278.939 143.427 278.681 144.207 278.166 144.726C277.651 145.246 276.877 145.505 275.842 145.505ZM277.715 138.902C277.715 138.004 277.531 137.298 277.162 136.783C276.797 136.263 276.33 136.003 275.76 136.003C275.131 136.003 274.673 136.231 274.386 136.687C274.099 137.143 273.955 137.881 273.955 138.902C273.955 139.914 274.09 140.64 274.359 141.083C274.628 141.525 275.088 141.746 275.74 141.746C276.323 141.746 276.797 141.493 277.162 140.987C277.531 140.476 277.715 139.781 277.715 138.902ZM282.126 139.162C282.126 140.009 282.301 140.663 282.652 141.124C283.003 141.584 283.516 141.814 284.19 141.814C284.723 141.814 285.15 141.707 285.469 141.493C285.792 141.278 286.011 141.007 286.125 140.679L287.205 140.987C286.763 142.153 285.758 142.737 284.19 142.737C283.096 142.737 282.262 142.411 281.688 141.759C281.119 141.108 280.834 140.139 280.834 138.854C280.834 137.633 281.119 136.696 281.688 136.044C282.262 135.393 283.081 135.067 284.142 135.067C285.232 135.067 286.047 135.395 286.59 136.051C287.132 136.708 287.403 137.69 287.403 138.998V139.162H282.126ZM286.132 138.218C286.063 137.439 285.865 136.872 285.537 136.516C285.209 136.156 284.737 135.976 284.122 135.976C283.525 135.976 283.051 136.177 282.7 136.578C282.354 136.974 282.167 137.521 282.139 138.218H286.132ZM290.583 138.745V142.6H289.353V136.926C289.353 136.667 289.348 136.393 289.339 136.106C289.334 135.819 289.325 135.518 289.312 135.204H290.474C290.483 135.413 290.49 135.602 290.494 135.771C290.503 135.94 290.51 136.088 290.515 136.215C290.519 136.338 290.522 136.443 290.522 136.53C290.526 136.612 290.529 136.673 290.529 136.714H290.556C290.693 136.268 290.843 135.921 291.007 135.675C291.167 135.447 291.349 135.29 291.554 135.204C291.759 135.112 292.012 135.067 292.313 135.067C292.481 135.067 292.648 135.09 292.812 135.135V136.263C292.657 136.218 292.438 136.195 292.155 136.195C291.645 136.195 291.255 136.416 290.987 136.858C290.718 137.295 290.583 137.924 290.583 138.745ZM295.281 139.162C295.281 140.009 295.456 140.663 295.807 141.124C296.158 141.584 296.671 141.814 297.345 141.814C297.879 141.814 298.305 141.707 298.624 141.493C298.947 141.278 299.166 141.007 299.28 140.679L300.36 140.987C299.918 142.153 298.913 142.737 297.345 142.737C296.252 142.737 295.418 142.411 294.843 141.759C294.274 141.108 293.989 140.139 293.989 138.854C293.989 137.633 294.274 136.696 294.843 136.044C295.418 135.393 296.236 135.067 297.297 135.067C298.387 135.067 299.202 135.395 299.745 136.051C300.287 136.708 300.558 137.69 300.558 138.998V139.162H295.281ZM299.287 138.218C299.218 137.439 299.02 136.872 298.692 136.516C298.364 136.156 297.892 135.976 297.277 135.976C296.68 135.976 296.206 136.177 295.855 136.578C295.509 136.974 295.322 137.521 295.295 138.218H299.287ZM303.738 138.314V142.6H302.508V136.783C302.508 136.35 302.503 136.003 302.494 135.744C302.49 135.479 302.48 135.299 302.467 135.204H303.629C303.638 135.29 303.645 135.4 303.649 135.532C303.659 135.664 303.665 135.81 303.67 135.969C303.674 136.129 303.679 136.295 303.684 136.468H303.704C303.987 135.958 304.312 135.598 304.682 135.388C305.055 135.174 305.518 135.067 306.069 135.067C306.881 135.067 307.473 135.274 307.847 135.689C308.225 136.104 308.414 136.764 308.414 137.671V142.6H307.177V137.911C307.177 137.204 307.063 136.712 306.835 136.434C306.607 136.156 306.213 136.017 305.652 136.017C305.06 136.017 304.593 136.22 304.251 136.625C303.909 137.031 303.738 137.594 303.738 138.314ZM313.46 142.737C312.426 142.737 311.635 142.411 311.088 141.759C310.546 141.103 310.275 140.148 310.275 138.895C310.275 137.651 310.548 136.703 311.095 136.051C311.642 135.395 312.426 135.067 313.447 135.067C314.203 135.067 314.83 135.263 315.327 135.655C315.828 136.047 316.142 136.587 316.27 137.275L315.005 137.371C314.941 136.96 314.78 136.635 314.52 136.393C314.26 136.152 313.891 136.031 313.412 136.031C312.761 136.031 312.289 136.247 311.997 136.68C311.706 137.113 311.56 137.842 311.56 138.868C311.56 139.852 311.715 140.581 312.025 141.055C312.335 141.529 312.802 141.766 313.426 141.766C313.864 141.766 314.228 141.648 314.52 141.411C314.816 141.174 314.998 140.809 315.067 140.317L316.311 140.399C316.247 140.873 316.088 141.285 315.832 141.636C315.582 141.987 315.254 142.258 314.848 142.45C314.447 142.641 313.984 142.737 313.46 142.737ZM319.197 132.456V133.631H317.967V132.456H319.197ZM319.197 135.204V142.6H317.967V135.204H319.197ZM323.327 142.737C322.584 142.737 322.026 142.541 321.653 142.149C321.279 141.757 321.092 141.219 321.092 140.536C321.092 139.77 321.343 139.182 321.844 138.772C322.35 138.362 323.163 138.143 324.284 138.116L325.945 138.088V137.685C325.945 137.083 325.818 136.653 325.563 136.393C325.307 136.133 324.906 136.003 324.36 136.003C323.808 136.003 323.407 136.097 323.156 136.284C322.906 136.471 322.755 136.769 322.705 137.179L321.42 137.063C321.63 135.732 322.619 135.067 324.387 135.067C325.317 135.067 326.016 135.281 326.486 135.709C326.955 136.133 327.19 136.749 327.19 137.555V140.741C327.19 141.105 327.237 141.381 327.333 141.568C327.429 141.75 327.611 141.841 327.88 141.841C328.008 141.841 328.142 141.825 328.283 141.793V142.559C328.128 142.596 327.971 142.623 327.812 142.641C327.652 142.659 327.493 142.668 327.333 142.668C326.877 142.668 326.545 142.55 326.335 142.313C326.13 142.071 326.014 141.695 325.987 141.185H325.945C325.631 141.75 325.264 142.151 324.845 142.388C324.43 142.621 323.924 142.737 323.327 142.737ZM325.945 138.95L324.599 138.977C324.025 138.982 323.587 139.041 323.286 139.155C322.986 139.264 322.755 139.433 322.596 139.661C322.436 139.889 322.357 140.187 322.357 140.556C322.357 140.957 322.464 141.267 322.678 141.486C322.897 141.705 323.207 141.814 323.608 141.814C324.063 141.814 324.464 141.711 324.811 141.506C325.162 141.301 325.437 141.021 325.638 140.666C325.843 140.306 325.945 139.936 325.945 139.558V138.95ZM334.348 142.6C334.339 142.55 334.328 142.457 334.314 142.32C334.305 142.179 334.296 142.024 334.287 141.855C334.282 141.686 334.28 141.538 334.28 141.411H334.253C334.025 141.885 333.722 142.224 333.343 142.429C332.97 142.634 332.505 142.737 331.949 142.737C331.015 142.737 330.326 142.422 329.884 141.793C329.447 141.165 329.228 140.212 329.228 138.936C329.228 137.646 329.454 136.68 329.905 136.038C330.361 135.39 331.042 135.067 331.949 135.067C332.509 135.067 332.976 135.169 333.35 135.375C333.724 135.58 334.025 135.905 334.253 136.352H334.266L334.253 135.525V132.456H335.483V141.076C335.483 141.463 335.485 141.784 335.49 142.04C335.499 142.29 335.51 142.477 335.524 142.6H334.348ZM330.52 138.895C330.52 139.93 330.657 140.67 330.93 141.117C331.204 141.563 331.648 141.787 332.263 141.787C332.961 141.787 333.466 141.545 333.781 141.062C334.095 140.579 334.253 139.829 334.253 138.813C334.253 137.833 334.095 137.115 333.781 136.66C333.466 136.204 332.965 135.976 332.277 135.976C331.657 135.976 331.208 136.206 330.93 136.667C330.657 137.122 330.52 137.865 330.52 138.895ZM343.981 138.895C343.981 140.189 343.697 141.153 343.127 141.787C342.557 142.42 341.73 142.737 340.645 142.737C339.565 142.737 338.75 142.409 338.198 141.752C337.647 141.092 337.371 140.139 337.371 138.895C337.371 137.619 337.647 136.662 338.198 136.024C338.754 135.386 339.584 135.067 340.687 135.067C341.817 135.067 342.648 135.379 343.182 136.003C343.715 136.623 343.981 137.587 343.981 138.895ZM342.689 138.895C342.689 137.874 342.537 137.134 342.231 136.673C341.931 136.208 341.423 135.976 340.707 135.976C339.987 135.976 339.465 136.213 339.142 136.687C338.823 137.156 338.663 137.892 338.663 138.895C338.663 139.87 338.82 140.604 339.135 141.096C339.454 141.584 339.953 141.828 340.632 141.828C341.37 141.828 341.896 141.591 342.211 141.117C342.53 140.643 342.689 139.902 342.689 138.895ZM347.127 138.745V142.6H345.897V136.926C345.897 136.667 345.892 136.393 345.883 136.106C345.879 135.819 345.87 135.518 345.856 135.204H347.018C347.027 135.413 347.034 135.602 347.038 135.771C347.048 135.94 347.054 136.088 347.059 136.215C347.064 136.338 347.066 136.443 347.066 136.53C347.07 136.612 347.073 136.673 347.073 136.714H347.1C347.237 136.268 347.387 135.921 347.551 135.675C347.711 135.447 347.893 135.29 348.098 135.204C348.303 135.112 348.556 135.067 348.857 135.067C349.025 135.067 349.192 135.09 349.356 135.135V136.263C349.201 136.218 348.982 136.195 348.7 136.195C348.189 136.195 347.8 136.416 347.531 136.858C347.262 137.295 347.127 137.924 347.127 138.745ZM359.893 142.6C359.884 142.55 359.872 142.457 359.859 142.32C359.849 142.179 359.84 142.024 359.831 141.855C359.827 141.686 359.824 141.538 359.824 141.411H359.797C359.569 141.885 359.266 142.224 358.888 142.429C358.514 142.634 358.049 142.737 357.493 142.737C356.559 142.737 355.871 142.422 355.429 141.793C354.991 141.165 354.773 140.212 354.773 138.936C354.773 137.646 354.998 136.68 355.449 136.038C355.905 135.39 356.586 135.067 357.493 135.067C358.054 135.067 358.521 135.169 358.895 135.375C359.268 135.58 359.569 135.905 359.797 136.352H359.811L359.797 135.525V132.456H361.028V141.076C361.028 141.463 361.03 141.784 361.034 142.04C361.043 142.29 361.055 142.477 361.069 142.6H359.893ZM356.065 138.895C356.065 139.93 356.201 140.67 356.475 141.117C356.748 141.563 357.193 141.787 357.808 141.787C358.505 141.787 359.011 141.545 359.325 141.062C359.64 140.579 359.797 139.829 359.797 138.813C359.797 137.833 359.64 137.115 359.325 136.66C359.011 136.204 358.51 135.976 357.821 135.976C357.202 135.976 356.753 136.206 356.475 136.667C356.201 137.122 356.065 137.865 356.065 138.895ZM364.214 139.162C364.214 140.009 364.39 140.663 364.741 141.124C365.092 141.584 365.604 141.814 366.279 141.814C366.812 141.814 367.238 141.707 367.557 141.493C367.881 141.278 368.1 141.007 368.213 140.679L369.294 140.987C368.851 142.153 367.847 142.737 366.279 142.737C365.185 142.737 364.351 142.411 363.777 141.759C363.207 141.108 362.922 140.139 362.922 138.854C362.922 137.633 363.207 136.696 363.777 136.044C364.351 135.393 365.169 135.067 366.231 135.067C367.32 135.067 368.136 135.395 368.678 136.051C369.221 136.708 369.492 137.69 369.492 138.998V139.162H364.214ZM368.22 138.218C368.152 137.439 367.954 136.872 367.626 136.516C367.297 136.156 366.826 135.976 366.211 135.976C365.614 135.976 365.14 136.177 364.789 136.578C364.442 136.974 364.255 137.521 364.228 138.218H368.22ZM380.425 142.6C380.416 142.55 380.405 142.457 380.391 142.32C380.382 142.179 380.373 142.024 380.364 141.855C380.359 141.686 380.357 141.538 380.357 141.411H380.329C380.102 141.885 379.799 142.224 379.42 142.429C379.047 142.634 378.582 142.737 378.026 142.737C377.092 142.737 376.403 142.422 375.961 141.793C375.524 141.165 375.305 140.212 375.305 138.936C375.305 137.646 375.531 136.68 375.982 136.038C376.438 135.39 377.119 135.067 378.026 135.067C378.586 135.067 379.053 135.169 379.427 135.375C379.801 135.58 380.102 135.905 380.329 136.352H380.343L380.329 135.525V132.456H381.56V141.076C381.56 141.463 381.562 141.784 381.567 142.04C381.576 142.29 381.587 142.477 381.601 142.6H380.425ZM376.597 138.895C376.597 139.93 376.734 140.67 377.007 141.117C377.281 141.563 377.725 141.787 378.34 141.787C379.037 141.787 379.543 141.545 379.858 141.062C380.172 140.579 380.329 139.829 380.329 138.813C380.329 137.833 380.172 137.115 379.858 136.66C379.543 136.204 379.042 135.976 378.354 135.976C377.734 135.976 377.285 136.206 377.007 136.667C376.734 137.122 376.597 137.865 376.597 138.895ZM390.058 138.895C390.058 140.189 389.774 141.153 389.204 141.787C388.634 142.42 387.807 142.737 386.722 142.737C385.642 142.737 384.827 142.409 384.275 141.752C383.724 141.092 383.448 140.139 383.448 138.895C383.448 137.619 383.724 136.662 384.275 136.024C384.831 135.386 385.661 135.067 386.763 135.067C387.894 135.067 388.725 135.379 389.259 136.003C389.792 136.623 390.058 137.587 390.058 138.895ZM388.766 138.895C388.766 137.874 388.614 137.134 388.308 136.673C388.008 136.208 387.499 135.976 386.784 135.976C386.064 135.976 385.542 136.213 385.219 136.687C384.9 137.156 384.74 137.892 384.74 138.895C384.74 139.87 384.897 140.604 385.212 141.096C385.531 141.584 386.03 141.828 386.709 141.828C387.447 141.828 387.973 141.591 388.288 141.117C388.607 140.643 388.766 139.902 388.766 138.895ZM394.783 142.737C393.749 142.737 392.958 142.411 392.411 141.759C391.869 141.103 391.598 140.148 391.598 138.895C391.598 137.651 391.871 136.703 392.418 136.051C392.965 135.395 393.749 135.067 394.77 135.067C395.526 135.067 396.153 135.263 396.65 135.655C397.151 136.047 397.465 136.587 397.593 137.275L396.328 137.371C396.265 136.96 396.103 136.635 395.843 136.393C395.583 136.152 395.214 136.031 394.736 136.031C394.084 136.031 393.612 136.247 393.32 136.68C393.029 137.113 392.883 137.842 392.883 138.868C392.883 139.852 393.038 140.581 393.348 141.055C393.658 141.529 394.125 141.766 394.749 141.766C395.187 141.766 395.551 141.648 395.843 141.411C396.139 141.174 396.321 140.809 396.39 140.317L397.634 140.399C397.57 140.873 397.411 141.285 397.155 141.636C396.905 141.987 396.577 142.258 396.171 142.45C395.77 142.641 395.307 142.737 394.783 142.737ZM403.972 141.335C403.69 141.846 403.362 142.208 402.988 142.422C402.619 142.632 402.158 142.737 401.607 142.737C400.796 142.737 400.201 142.536 399.823 142.135C399.449 141.73 399.262 141.062 399.262 140.132V135.204H400.5V139.893C400.5 140.631 400.614 141.133 400.841 141.397C401.074 141.657 401.468 141.787 402.024 141.787C402.616 141.787 403.084 141.584 403.425 141.178C403.767 140.773 403.938 140.21 403.938 139.49V135.204H405.169V141.021C405.169 141.449 405.171 141.796 405.175 142.06C405.184 142.324 405.196 142.504 405.21 142.6H404.047C404.043 142.577 404.034 142.47 404.02 142.279C404.011 142.087 404.002 141.773 403.993 141.335H403.972ZM408.69 138.314V142.6H407.467V136.783C407.467 136.35 407.462 136.003 407.453 135.744C407.449 135.479 407.439 135.299 407.426 135.204H408.588C408.597 135.304 408.606 135.427 408.615 135.573C408.624 135.719 408.631 135.871 408.636 136.031C408.64 136.186 408.643 136.332 408.643 136.468H408.663C408.927 135.944 409.23 135.58 409.572 135.375C409.914 135.169 410.331 135.067 410.823 135.067C411.384 135.067 411.826 135.179 412.149 135.402C412.478 135.625 412.705 135.981 412.833 136.468H412.854C413.109 135.972 413.416 135.614 413.776 135.395C414.141 135.176 414.581 135.067 415.096 135.067C415.843 135.067 416.385 135.27 416.723 135.675C417.064 136.081 417.235 136.746 417.235 137.671V142.6H416.019V137.911C416.019 137.195 415.921 136.701 415.725 136.427C415.529 136.154 415.175 136.017 414.665 136.017C414.127 136.017 413.708 136.218 413.407 136.619C413.111 137.015 412.963 137.58 412.963 138.314V142.6H411.746V137.911C411.746 137.195 411.648 136.701 411.452 136.427C411.256 136.154 410.903 136.017 410.393 136.017C409.868 136.017 409.454 136.218 409.148 136.619C408.843 137.02 408.69 137.585 408.69 138.314ZM420.395 139.162C420.395 140.009 420.57 140.663 420.921 141.124C421.272 141.584 421.785 141.814 422.459 141.814C422.993 141.814 423.419 141.707 423.738 141.493C424.061 141.278 424.28 141.007 424.394 140.679L425.474 140.987C425.032 142.153 424.027 142.737 422.459 142.737C421.366 142.737 420.532 142.411 419.957 141.759C419.388 141.108 419.103 140.139 419.103 138.854C419.103 137.633 419.388 136.696 419.957 136.044C420.532 135.393 421.35 135.067 422.412 135.067C423.501 135.067 424.316 135.395 424.859 136.051C425.401 136.708 425.672 137.69 425.672 138.998V139.162H420.395ZM424.401 138.218C424.332 137.439 424.134 136.872 423.806 136.516C423.478 136.156 423.006 135.976 422.391 135.976C421.794 135.976 421.32 136.177 420.969 136.578C420.623 136.974 420.436 137.521 420.409 138.218H424.401ZM428.852 138.314V142.6H427.622V136.783C427.622 136.35 427.617 136.003 427.608 135.744C427.604 135.479 427.595 135.299 427.581 135.204H428.743C428.752 135.29 428.759 135.4 428.763 135.532C428.773 135.664 428.779 135.81 428.784 135.969C428.789 136.129 428.793 136.295 428.798 136.468H428.818C429.101 135.958 429.427 135.598 429.796 135.388C430.169 135.174 430.632 135.067 431.183 135.067C431.995 135.067 432.587 135.274 432.961 135.689C433.339 136.104 433.528 136.764 433.528 137.671V142.6H432.291V137.911C432.291 137.204 432.177 136.712 431.949 136.434C431.721 136.156 431.327 136.017 430.766 136.017C430.174 136.017 429.707 136.22 429.365 136.625C429.023 137.031 428.852 137.594 428.852 138.314ZM438.581 142.545C438.18 142.655 437.765 142.709 437.337 142.709C436.845 142.709 436.476 142.57 436.23 142.292C435.984 142.01 435.861 141.591 435.861 141.035V136.099H435.006V135.204H435.908L436.271 133.549H437.091V135.204H438.458V136.099H437.091V140.768C437.091 141.124 437.148 141.374 437.262 141.52C437.38 141.661 437.583 141.732 437.87 141.732C438.025 141.732 438.262 141.7 438.581 141.636V142.545ZM446.239 138.895C446.239 140.189 445.954 141.153 445.384 141.787C444.815 142.42 443.988 142.737 442.903 142.737C441.823 142.737 441.007 142.409 440.456 141.752C439.904 141.092 439.629 140.139 439.629 138.895C439.629 137.619 439.904 136.662 440.456 136.024C441.012 135.386 441.841 135.067 442.944 135.067C444.074 135.067 444.906 135.379 445.439 136.003C445.972 136.623 446.239 137.587 446.239 138.895ZM444.947 138.895C444.947 137.874 444.794 137.134 444.489 136.673C444.188 136.208 443.68 135.976 442.964 135.976C442.244 135.976 441.723 136.213 441.399 136.687C441.08 137.156 440.921 137.892 440.921 138.895C440.921 139.87 441.078 140.604 441.392 141.096C441.711 141.584 442.21 141.828 442.889 141.828C443.628 141.828 444.154 141.591 444.468 141.117C444.787 140.643 444.947 139.902 444.947 138.895ZM453.678 140.556C453.678 141.253 453.413 141.791 452.885 142.169C452.361 142.548 451.625 142.737 450.677 142.737C449.756 142.737 449.045 142.586 448.544 142.286C448.047 141.98 447.724 141.506 447.573 140.864L448.66 140.652C448.765 141.048 448.981 141.34 449.31 141.527C449.638 141.709 450.093 141.8 450.677 141.8C451.301 141.8 451.757 141.705 452.044 141.513C452.336 141.322 452.481 141.035 452.481 140.652C452.481 140.36 452.381 140.123 452.181 139.941C451.98 139.759 451.657 139.608 451.21 139.49C450.681 139.348 450.26 139.232 449.945 139.141C449.635 139.05 449.396 138.972 449.228 138.909C449.059 138.84 448.924 138.777 448.824 138.717C448.523 138.544 448.289 138.332 448.12 138.082C447.951 137.831 447.867 137.523 447.867 137.159C447.867 136.484 448.106 135.972 448.585 135.621C449.068 135.265 449.77 135.087 450.69 135.087C451.506 135.087 452.153 135.231 452.632 135.518C453.115 135.805 453.42 136.265 453.548 136.899L452.44 137.036C452.372 136.708 452.187 136.457 451.887 136.284C451.59 136.106 451.192 136.017 450.69 136.017C450.134 136.017 449.724 136.101 449.46 136.27C449.196 136.439 449.063 136.694 449.063 137.036C449.063 137.286 449.139 137.494 449.289 137.658C449.439 137.817 449.727 137.949 450.15 138.054C450.72 138.191 451.262 138.341 451.777 138.505C452.292 138.665 452.661 138.824 452.885 138.984C453.145 139.171 453.34 139.392 453.473 139.647C453.609 139.898 453.678 140.201 453.678 140.556Z" fill="#62748E"/>
<g opacity="0.3" filter="url(#filter1_f_1_128)">
<path d="M86.8 77.8C86.8 68.9635 93.9634 61.8 102.8 61.8H182.8C191.637 61.8 198.8 68.9635 198.8 77.8V157.8C198.8 166.637 191.637 173.8 182.8 173.8H102.8C93.9634 173.8 86.8 166.637 86.8 157.8V77.8Z" fill="#2B7FFF"/>
</g>
<path d="M117.856 81.856C123.72 76 133.144 76 152 76C170.856 76 180.284 76 186.14 81.856C192 87.72 192 97.144 192 116C192 134.856 192 144.284 186.14 150.14C180.288 156 170.856 156 152 156C133.144 156 123.716 156 117.856 150.14C112 144.288 112 134.856 112 116C112 97.144 112 87.716 117.856 81.856Z" fill="url(#paint0_linear_1_128)"/>
<path d="M139.856 95.452C148.808 86.852 163.28 86.852 172.232 95.452C174.368 97.4742 176.07 99.9109 177.233 102.613C178.396 105.315 178.996 108.226 178.996 111.168C178.996 114.11 178.396 117.021 177.233 119.723C176.07 122.425 174.368 124.862 172.232 126.884L163.416 135.356C160.951 137.696 157.681 139.001 154.282 139.001C150.883 139.001 147.613 137.696 145.148 135.356C143.934 134.205 142.967 132.818 142.306 131.281C141.646 129.744 141.305 128.089 141.305 126.416C141.305 124.743 141.646 123.087 142.306 121.55C142.967 120.013 143.934 118.627 145.148 117.476L152.204 110.7C152.485 110.414 152.821 110.186 153.191 110.032C153.562 109.878 153.959 109.799 154.361 109.801C154.762 109.803 155.159 109.886 155.528 110.044C155.897 110.202 156.23 110.433 156.508 110.722C156.786 111.012 157.003 111.354 157.147 111.729C157.29 112.104 157.357 112.503 157.343 112.904C157.33 113.306 157.235 113.7 157.067 114.064C156.898 114.428 156.657 114.754 156.36 115.024L149.304 121.804C148.673 122.395 148.17 123.109 147.826 123.903C147.483 124.696 147.305 125.551 147.305 126.416C147.305 127.281 147.483 128.136 147.826 128.929C148.17 129.723 148.673 130.437 149.304 131.028C150.653 132.291 152.432 132.994 154.28 132.994C156.128 132.994 157.907 132.291 159.256 131.028L168.076 122.56C169.631 121.098 170.87 119.332 171.716 117.373C172.563 115.414 173 113.302 173 111.168C173 109.034 172.563 106.922 171.716 104.963C170.87 103.003 169.631 101.238 168.076 99.776C161.444 93.408 150.644 93.408 144.012 99.776L135.192 108.248C133.868 109.492 132.813 110.995 132.092 112.662C131.371 114.33 130.999 116.127 130.999 117.944C130.999 119.761 131.371 121.558 132.092 123.226C132.813 124.893 133.868 126.396 135.192 127.64C135.766 128.191 136.097 128.948 136.114 129.743C136.13 130.539 135.829 131.308 135.278 131.882C134.727 132.456 133.97 132.787 133.175 132.803C132.379 132.82 131.61 132.519 131.036 131.968C129.129 130.164 127.611 127.989 126.573 125.578C125.535 123.167 124.999 120.569 124.999 117.944C124.999 115.319 125.535 112.721 126.573 110.31C127.611 107.899 129.129 105.724 131.036 103.92L139.856 95.452Z" fill="white"/>
</g>
<defs>
<filter id="filter0_d_1_128" x="0" y="0" width="598.725" height="285.6" filterUnits="userSpaceOnUse" color-interpolation-filters="sRGB">
<feFlood flood-opacity="0" result="BackgroundImageFix"/>
<feColorMatrix in="SourceAlpha" type="matrix" values="0 0 0 0 0 0 0 0 0 0 0 0 0 0 0 0 0 0 127 0" result="hardAlpha"/>
<feMorphology radius="12" operator="erode" in="SourceAlpha" result="effect1_dropShadow_1_128"/>
<feOffset dy="25"/>
<feGaussianBlur stdDeviation="25"/>
<feComposite in2="hardAlpha" operator="out"/>
<feColorMatrix type="matrix" values="0 0 0 0 0 0 0 0 0 0 0 0 0 0 0 0 0 0 0.25 0"/>
<feBlend mode="normal" in2="BackgroundImageFix" result="effect1_dropShadow_1_128"/>
<feBlend mode="normal" in="SourceGraphic" in2="effect1_dropShadow_1_128" result="shape"/>
</filter>
<filter id="filter1_f_1_128" x="38.8" y="13.8" width="208" height="208" filterUnits="userSpaceOnUse" color-interpolation-filters="sRGB">
<feFlood flood-opacity="0" result="BackgroundImageFix"/>
<feBlend mode="normal" in="SourceGraphic" in2="BackgroundImageFix" result="shape"/>
<feGaussianBlur stdDeviation="24" result="effect1_foregroundBlur_1_128"/>
</filter>
<linearGradient id="paint0_linear_1_128" x1="112" y1="76" x2="192" y2="156" gradientUnits="userSpaceOnUse">
<stop stop-color="#155DFC"/>
<stop offset="1" stop-color="#1447E6"/>
</linearGradient>
</defs>
</svg>
