<svg width="543" height="208" viewBox="0 0 543 208" fill="none" xmlns="http://www.w3.org/2000/svg">
<path d="M208.648 87.2422C208.648 90.7734 207.961 93.7891 206.586 96.2891C205.227 98.7891 203.336 100.703 200.914 102.031C198.508 103.344 195.727 104 192.57 104H179.211V70.9766H191.164C196.727 70.9766 201.031 72.3828 204.078 75.1953C207.125 77.9922 208.648 82.0078 208.648 87.2422ZM201.688 87.2422C201.688 83.6953 200.766 80.9922 198.922 79.1328C197.078 77.2578 194.445 76.3203 191.023 76.3203H186.125V98.6562H191.984C193.969 98.6562 195.68 98.1953 197.117 97.2734C198.57 96.3359 199.695 95.0156 200.492 93.3125C201.289 91.6094 201.688 89.5859 201.688 87.2422ZM236.933 91.2969C236.933 95.4062 235.792 98.6328 233.511 100.977C231.23 103.305 228.073 104.469 224.042 104.469C220.089 104.469 216.987 103.297 214.737 100.953C212.487 98.6094 211.362 95.3906 211.362 91.2969C211.362 87.2188 212.487 84.0156 214.737 81.6875C216.987 79.3438 220.136 78.1719 224.183 78.1719C228.323 78.1719 231.48 79.3047 233.652 81.5703C235.839 83.8203 236.933 87.0625 236.933 91.2969ZM230.042 91.2969C230.042 88.2812 229.55 86.0938 228.566 84.7344C227.581 83.375 226.152 82.6953 224.277 82.6953C222.277 82.6953 220.777 83.4141 219.777 84.8516C218.777 86.2734 218.277 88.4219 218.277 91.2969C218.277 94.125 218.761 96.2812 219.73 97.7656C220.714 99.2344 222.128 99.9688 223.972 99.9688C226.003 99.9688 227.519 99.25 228.519 97.8125C229.534 96.3594 230.042 94.1875 230.042 91.2969ZM251.553 104.469C247.709 104.469 244.741 103.328 242.647 101.047C240.553 98.75 239.506 95.5547 239.506 91.4609C239.506 87.2734 240.561 84.0156 242.67 81.6875C244.78 79.3438 247.772 78.1719 251.647 78.1719C254.631 78.1719 257.1 78.9219 259.053 80.4219C261.006 81.9219 262.233 83.9922 262.733 86.6328L256.1 86.9609C255.912 85.6641 255.444 84.6328 254.694 83.8672C253.944 83.0859 252.881 82.6953 251.506 82.6953C249.803 82.6953 248.53 83.4062 247.686 84.8281C246.842 86.2344 246.42 88.3594 246.42 91.2031C246.42 94.125 246.85 96.3203 247.709 97.7891C248.584 99.2422 249.881 99.9688 251.6 99.9688C252.85 99.9688 253.897 99.5781 254.741 98.7969C255.584 98 256.108 96.8203 256.311 95.2578L262.92 95.5625C262.686 97.3438 262.053 98.9062 261.022 100.25C260.006 101.578 258.686 102.617 257.061 103.367C255.436 104.102 253.6 104.469 251.553 104.469ZM287.877 96.5938C287.877 99.0469 286.869 100.977 284.853 102.383C282.853 103.773 280.08 104.469 276.533 104.469C273.048 104.469 270.377 103.922 268.517 102.828C266.673 101.719 265.447 100 264.838 97.6719L270.627 96.8047C270.955 98.0078 271.517 98.8594 272.314 99.3594C273.127 99.8594 274.533 100.109 276.533 100.109C278.377 100.109 279.72 99.875 280.564 99.4062C281.408 98.9375 281.83 98.2031 281.83 97.2031C281.83 96.3906 281.486 95.75 280.798 95.2812C280.127 94.7969 278.978 94.3906 277.353 94.0625C276.119 93.8125 275.009 93.5703 274.025 93.3359C273.056 93.1016 272.22 92.875 271.517 92.6562C270.83 92.4219 270.267 92.2031 269.83 92C268.533 91.3594 267.541 90.5391 266.853 89.5391C266.181 88.5391 265.845 87.3047 265.845 85.8359C265.845 83.4141 266.775 81.5312 268.634 80.1875C270.509 78.8281 273.158 78.1484 276.58 78.1484C279.595 78.1484 282.017 78.7344 283.845 79.9062C285.689 81.0781 286.838 82.7734 287.291 84.9922L281.455 85.6016C281.267 84.5703 280.806 83.8047 280.072 83.3047C279.338 82.7891 278.173 82.5312 276.58 82.5312C275.017 82.5312 273.845 82.7344 273.064 83.1406C272.283 83.5312 271.892 84.1953 271.892 85.1328C271.892 85.8672 272.189 86.4531 272.783 86.8906C273.392 87.3125 274.408 87.6641 275.83 87.9453C277.814 88.3516 279.572 88.7734 281.103 89.2109C282.65 89.6328 283.892 90.1406 284.83 90.7344C285.752 91.3281 286.486 92.0938 287.033 93.0312C287.595 93.9531 287.877 95.1406 287.877 96.5938Z" fill="#0F172B"/>
<path d="M298.02 83.9844V104H291.88V70.9766H301.137L307.044 89.4453C307.309 90.4766 307.583 91.5156 307.864 92.5625C308.145 93.5938 308.419 94.625 308.684 95.6562C308.856 95.0625 309.02 94.4766 309.177 93.8984C309.333 93.3047 309.489 92.7109 309.645 92.1172C309.817 91.5234 309.989 90.9375 310.161 90.3594L316.231 70.9766H325.442V104H319.302V83.9844C319.302 83.5312 319.317 82.625 319.348 81.2656C319.395 79.8906 319.458 78.3984 319.536 76.7891C318.989 78.8828 318.505 80.6641 318.083 82.1328C317.677 83.6016 317.341 84.75 317.075 85.5781L311.122 104H306.2L300.247 85.5781L297.739 76.7891C297.833 78.6016 297.903 80.1094 297.95 81.3125C297.997 82.5 298.02 83.3906 298.02 83.9844ZM336.664 104.469C334.211 104.469 332.297 103.805 330.922 102.477C329.547 101.133 328.859 99.25 328.859 96.8281C328.859 94.2031 329.711 92.2109 331.414 90.8516C333.133 89.4922 335.617 88.7812 338.867 88.7188L344.328 88.625V87.3359C344.328 85.6797 344.039 84.4531 343.461 83.6562C342.883 82.8438 341.938 82.4375 340.625 82.4375C339.406 82.4375 338.508 82.7188 337.93 83.2812C337.367 83.8281 337.016 84.7422 336.875 86.0234L330.008 85.6953C330.867 80.6797 334.5 78.1719 340.906 78.1719C344.109 78.1719 346.578 78.9609 348.312 80.5391C350.047 82.1172 350.914 84.3594 350.914 87.2656V96.5C350.914 97.9219 351.07 98.9062 351.383 99.4531C351.711 99.9844 352.25 100.25 353 100.25C353.5 100.25 353.984 100.203 354.453 100.109V103.672C353.641 103.875 352.945 104.023 352.367 104.117C351.789 104.227 351.078 104.281 350.234 104.281C348.578 104.281 347.352 103.875 346.555 103.062C345.773 102.25 345.305 101.055 345.148 99.4766H345.008C344.086 101.133 342.93 102.383 341.539 103.227C340.148 104.055 338.523 104.469 336.664 104.469ZM344.328 92.2578L340.953 92.3047C339.406 92.3828 338.32 92.5469 337.695 92.7969C337.055 93.0781 336.562 93.5 336.219 94.0625C335.891 94.625 335.727 95.375 335.727 96.3125C335.727 97.5156 336 98.4141 336.547 99.0078C337.109 99.5859 337.852 99.875 338.773 99.875C339.805 99.875 340.75 99.5938 341.609 99.0312C342.453 98.4688 343.117 97.6953 343.602 96.7109C344.086 95.7109 344.328 94.6562 344.328 93.5469V92.2578ZM362.909 90.4062V104H356.323V84.3125C356.323 82.9531 356.3 81.8438 356.253 80.9844C356.222 80.1094 356.183 79.3281 356.136 78.6406H362.417C362.448 78.8281 362.488 79.2734 362.534 79.9766C362.581 80.6641 362.62 81.375 362.652 82.1094C362.698 82.8281 362.722 83.3516 362.722 83.6797H362.816C363.706 81.7422 364.823 80.3359 366.167 79.4609C367.511 78.5859 369.113 78.1484 370.972 78.1484C373.659 78.1484 375.722 78.9766 377.159 80.6328C378.597 82.2891 379.316 84.7109 379.316 87.8984V104H372.753V89.7734C372.753 87.5391 372.378 85.8672 371.628 84.7578C370.878 83.6484 369.745 83.0938 368.23 83.0938C366.636 83.0938 365.347 83.7812 364.363 85.1562C363.394 86.5156 362.909 88.2656 362.909 90.4062ZM390.327 104.469C387.873 104.469 385.959 103.805 384.584 102.477C383.209 101.133 382.522 99.25 382.522 96.8281C382.522 94.2031 383.373 92.2109 385.077 90.8516C386.795 89.4922 389.28 88.7812 392.53 88.7188L397.991 88.625V87.3359C397.991 85.6797 397.702 84.4531 397.123 83.6562C396.545 82.8438 395.6 82.4375 394.288 82.4375C393.069 82.4375 392.17 82.7188 391.592 83.2812C391.03 83.8281 390.678 84.7422 390.538 86.0234L383.67 85.6953C384.53 80.6797 388.163 78.1719 394.569 78.1719C397.772 78.1719 400.241 78.9609 401.975 80.5391C403.709 82.1172 404.577 84.3594 404.577 87.2656V96.5C404.577 97.9219 404.733 98.9062 405.045 99.4531C405.373 99.9844 405.913 100.25 406.663 100.25C407.163 100.25 407.647 100.203 408.116 100.109V103.672C407.303 103.875 406.608 104.023 406.03 104.117C405.452 104.227 404.741 104.281 403.897 104.281C402.241 104.281 401.014 103.875 400.217 103.062C399.436 102.25 398.967 101.055 398.811 99.4766H398.67C397.748 101.133 396.592 102.383 395.202 103.227C393.811 104.055 392.186 104.469 390.327 104.469ZM397.991 92.2578L394.616 92.3047C393.069 92.3828 391.983 92.5469 391.358 92.7969C390.717 93.0781 390.225 93.5 389.881 94.0625C389.553 94.625 389.389 95.375 389.389 96.3125C389.389 97.5156 389.663 98.4141 390.209 99.0078C390.772 99.5859 391.514 99.875 392.436 99.875C393.467 99.875 394.413 99.5938 395.272 99.0312C396.116 98.4688 396.78 97.6953 397.264 96.7109C397.748 95.7109 397.991 94.6562 397.991 93.5469V92.2578ZM420.603 114.172C417.509 114.172 415.017 113.578 413.127 112.391C411.252 111.219 410.095 109.539 409.658 107.352L416.244 106.578C416.478 107.594 416.978 108.391 417.744 108.969C418.525 109.547 419.541 109.836 420.791 109.836C422.619 109.836 423.955 109.273 424.798 108.148C425.642 107.023 426.064 105.352 426.064 103.133L426.111 99.2891H426.064C425.345 100.852 424.306 102.023 422.947 102.805C421.587 103.57 419.908 103.953 417.908 103.953C414.955 103.953 412.666 102.844 411.041 100.625C409.416 98.4062 408.603 95.2344 408.603 91.1094C408.603 86.9688 409.439 83.7734 411.111 81.5234C412.783 79.2734 415.212 78.1484 418.4 78.1484C420.244 78.1484 421.798 78.5312 423.064 79.2969C424.345 80.0469 425.345 81.1875 426.064 82.7188H426.181C426.181 82.3438 426.197 81.875 426.228 81.3125C426.259 80.75 426.298 80.2109 426.345 79.6953C426.408 79.1797 426.462 78.8281 426.509 78.6406H432.744C432.65 80.3281 432.603 82.2812 432.603 84.5V103.227C432.603 106.836 431.58 109.562 429.533 111.406C427.486 113.25 424.509 114.172 420.603 114.172ZM426.111 90.9688C426.111 88.3594 425.642 86.3281 424.705 84.875C423.783 83.4062 422.462 82.6719 420.744 82.6719C418.994 82.6719 417.673 83.375 416.783 84.7812C415.908 86.1875 415.47 88.2969 415.47 91.1094C415.47 93.8594 415.9 95.9297 416.759 97.3203C417.634 98.6953 418.947 99.3828 420.697 99.3828C422.447 99.3828 423.783 98.6562 424.705 97.2031C425.642 95.7344 426.111 93.6562 426.111 90.9688ZM443.567 92.5859C443.567 95.0547 444.02 96.9219 444.927 98.1875C445.848 99.4375 447.153 100.062 448.841 100.062C449.997 100.062 450.942 99.8125 451.677 99.3125C452.427 98.7969 452.95 98.0391 453.247 97.0391L459.458 97.5781C457.661 102.172 454.013 104.469 448.513 104.469C444.7 104.469 441.77 103.344 439.723 101.094C437.677 98.8281 436.653 95.5312 436.653 91.2031C436.653 87.0156 437.692 83.7969 439.77 81.5469C441.848 79.2969 444.794 78.1719 448.606 78.1719C452.247 78.1719 455.028 79.3828 456.95 81.8047C458.872 84.2109 459.833 87.7422 459.833 92.3984V92.5859H443.567ZM453.458 88.4609C453.333 86.4141 452.841 84.8828 451.981 83.8672C451.122 82.8359 449.966 82.3203 448.513 82.3203C446.966 82.3203 445.77 82.8594 444.927 83.9375C444.098 85.0156 443.661 86.5234 443.614 88.4609H453.458ZM470.234 91.5547V104H463.648V84.5938C463.648 83.2031 463.625 82.0469 463.578 81.125C463.547 80.1875 463.508 79.3594 463.461 78.6406H469.742C469.773 78.7812 469.805 79.0938 469.836 79.5781C469.867 80.0625 469.898 80.6094 469.93 81.2188C469.961 81.8125 469.984 82.375 470 82.9062C470.031 83.4375 470.047 83.8203 470.047 84.0547H470.141C470.766 82.3047 471.336 81.0469 471.852 80.2812C472.352 79.5469 472.945 79.0078 473.633 78.6641C474.32 78.3203 475.18 78.1484 476.211 78.1484C477.055 78.1484 477.734 78.2656 478.25 78.5V84.0078C477.203 83.7734 476.266 83.6562 475.438 83.6562C473.797 83.6562 472.516 84.3203 471.594 85.6484C470.688 86.9766 470.234 88.9453 470.234 91.5547Z" fill="#155DFC"/>
<path d="M184.695 126.141C184.695 127.03 184.347 127.718 183.649 128.205C182.957 128.693 181.979 128.937 180.717 128.937C178.37 128.937 177.009 128.121 176.636 126.49L177.9 126.237C178.046 126.815 178.356 127.241 178.83 127.515C179.304 127.784 179.949 127.918 180.765 127.918C181.608 127.918 182.257 127.775 182.713 127.488C183.173 127.196 183.403 126.77 183.403 126.209C183.403 125.895 183.33 125.64 183.185 125.444C183.043 125.248 182.843 125.086 182.583 124.958C182.323 124.831 182.013 124.724 181.653 124.637C181.293 124.55 180.895 124.457 180.457 124.357C179.951 124.243 179.527 124.131 179.186 124.022C178.848 123.912 178.57 123.798 178.352 123.68C178.133 123.557 177.946 123.427 177.791 123.29C177.563 123.081 177.388 122.837 177.265 122.559C177.146 122.281 177.087 121.962 177.087 121.602C177.087 120.777 177.401 120.141 178.03 119.695C178.664 119.248 179.568 119.025 180.744 119.025C181.838 119.025 182.674 119.193 183.253 119.531C183.832 119.863 184.237 120.433 184.47 121.24L183.185 121.465C183.043 120.955 182.774 120.586 182.378 120.358C181.981 120.125 181.432 120.009 180.73 120.009C179.96 120.009 179.372 120.137 178.967 120.392C178.561 120.647 178.358 121.028 178.358 121.533C178.358 121.83 178.436 122.076 178.591 122.272C178.75 122.463 178.978 122.625 179.274 122.757C179.552 122.889 180.143 123.056 181.045 123.256C181.414 123.343 181.779 123.434 182.139 123.53C182.499 123.621 182.838 123.737 183.157 123.878C183.344 123.956 183.522 124.051 183.69 124.165C183.864 124.275 184.014 124.402 184.142 124.548C184.315 124.74 184.449 124.965 184.545 125.225C184.645 125.485 184.695 125.79 184.695 126.141ZM187.855 118.656V119.831H186.624V118.656H187.855ZM187.855 121.404V128.8H186.624V121.404H187.855ZM195.649 126.756C195.649 127.453 195.385 127.991 194.856 128.369C194.332 128.748 193.596 128.937 192.648 128.937C191.728 128.937 191.017 128.786 190.515 128.486C190.019 128.18 189.695 127.706 189.545 127.064L190.632 126.852C190.736 127.248 190.953 127.54 191.281 127.727C191.609 127.909 192.065 128 192.648 128C193.273 128 193.728 127.905 194.015 127.713C194.307 127.522 194.453 127.235 194.453 126.852C194.453 126.56 194.353 126.323 194.152 126.141C193.952 125.959 193.628 125.808 193.181 125.69C192.653 125.548 192.231 125.432 191.917 125.341C191.607 125.25 191.368 125.172 191.199 125.109C191.03 125.04 190.896 124.976 190.796 124.917C190.495 124.744 190.26 124.532 190.092 124.281C189.923 124.031 189.839 123.723 189.839 123.359C189.839 122.684 190.078 122.171 190.556 121.821C191.04 121.465 191.741 121.287 192.662 121.287C193.478 121.287 194.125 121.431 194.603 121.718C195.086 122.005 195.392 122.465 195.519 123.099L194.412 123.236C194.344 122.907 194.159 122.657 193.858 122.484C193.562 122.306 193.163 122.217 192.662 122.217C192.106 122.217 191.696 122.301 191.431 122.47C191.167 122.639 191.035 122.894 191.035 123.236C191.035 123.486 191.11 123.694 191.261 123.858C191.411 124.017 191.698 124.149 192.122 124.254C192.692 124.391 193.234 124.541 193.749 124.705C194.264 124.865 194.633 125.024 194.856 125.184C195.116 125.371 195.312 125.592 195.444 125.847C195.581 126.098 195.649 126.401 195.649 126.756ZM200.292 128.745C199.891 128.855 199.476 128.909 199.048 128.909C198.556 128.909 198.187 128.77 197.941 128.492C197.695 128.21 197.571 127.791 197.571 127.235V122.299H196.717V121.404H197.619L197.982 119.749H198.802V121.404H200.169V122.299H198.802V126.968C198.802 127.323 198.859 127.574 198.973 127.72C199.091 127.861 199.294 127.932 199.581 127.932C199.736 127.932 199.973 127.9 200.292 127.836V128.745ZM202.638 125.362C202.638 126.209 202.814 126.863 203.165 127.323C203.516 127.784 204.028 128.014 204.703 128.014C205.236 128.014 205.662 127.907 205.981 127.693C206.305 127.478 206.523 127.207 206.637 126.879L207.717 127.187C207.275 128.353 206.27 128.937 204.703 128.937C203.609 128.937 202.775 128.611 202.201 127.959C201.631 127.308 201.346 126.339 201.346 125.054C201.346 123.833 201.631 122.896 202.201 122.244C202.775 121.593 203.593 121.267 204.655 121.267C205.744 121.267 206.56 121.595 207.102 122.251C207.644 122.907 207.916 123.89 207.916 125.198V125.362H202.638ZM206.644 124.418C206.576 123.639 206.378 123.072 206.049 122.716C205.721 122.356 205.25 122.176 204.634 122.176C204.037 122.176 203.563 122.377 203.212 122.778C202.866 123.174 202.679 123.721 202.652 124.418H206.644ZM211.089 124.514V128.8H209.865V122.983C209.865 122.55 209.861 122.203 209.852 121.944C209.847 121.679 209.838 121.499 209.824 121.404H210.986C210.995 121.504 211.005 121.627 211.014 121.773C211.023 121.919 211.03 122.071 211.034 122.231C211.039 122.386 211.041 122.531 211.041 122.668H211.062C211.326 122.144 211.629 121.78 211.971 121.574C212.312 121.369 212.729 121.267 213.222 121.267C213.782 121.267 214.224 121.378 214.548 121.602C214.876 121.825 215.104 122.181 215.231 122.668H215.252C215.507 122.171 215.815 121.814 216.175 121.595C216.539 121.376 216.979 121.267 217.494 121.267C218.242 121.267 218.784 121.47 219.121 121.875C219.463 122.281 219.634 122.946 219.634 123.871V128.8H218.417V124.111C218.417 123.395 218.319 122.901 218.123 122.627C217.927 122.354 217.574 122.217 217.063 122.217C216.526 122.217 216.106 122.418 215.806 122.819C215.509 123.215 215.361 123.78 215.361 124.514V128.8H214.145V124.111C214.145 123.395 214.047 122.901 213.851 122.627C213.655 122.354 213.301 122.217 212.791 122.217C212.267 122.217 211.852 122.418 211.547 122.819C211.242 123.22 211.089 123.785 211.089 124.514ZM223.737 128.937C222.994 128.937 222.436 128.741 222.062 128.349C221.688 127.957 221.501 127.419 221.501 126.736C221.501 125.97 221.752 125.382 222.253 124.972C222.759 124.562 223.573 124.343 224.694 124.316L226.355 124.288V123.885C226.355 123.283 226.227 122.853 225.972 122.593C225.717 122.333 225.316 122.203 224.769 122.203C224.218 122.203 223.816 122.297 223.566 122.484C223.315 122.67 223.165 122.969 223.115 123.379L221.829 123.263C222.039 121.932 223.028 121.267 224.796 121.267C225.726 121.267 226.426 121.481 226.895 121.909C227.364 122.333 227.599 122.948 227.599 123.755V126.941C227.599 127.305 227.647 127.581 227.743 127.768C227.838 127.95 228.021 128.041 228.289 128.041C228.417 128.041 228.551 128.025 228.693 127.993V128.759C228.538 128.795 228.381 128.823 228.221 128.841C228.062 128.859 227.902 128.868 227.743 128.868C227.287 128.868 226.954 128.75 226.745 128.513C226.539 128.271 226.423 127.895 226.396 127.385H226.355C226.04 127.95 225.674 128.351 225.254 128.588C224.84 128.821 224.334 128.937 223.737 128.937ZM226.355 125.15L225.008 125.177C224.434 125.182 223.996 125.241 223.696 125.355C223.395 125.464 223.165 125.633 223.005 125.861C222.846 126.088 222.766 126.387 222.766 126.756C222.766 127.157 222.873 127.467 223.087 127.686C223.306 127.905 223.616 128.014 224.017 128.014C224.473 128.014 224.874 127.911 225.22 127.706C225.571 127.501 225.847 127.221 226.047 126.865C226.252 126.505 226.355 126.136 226.355 125.758V125.15ZM237.042 131.705C236.236 131.705 235.593 131.546 235.114 131.227C234.636 130.912 234.328 130.463 234.192 129.88L235.429 129.702C235.511 130.044 235.691 130.306 235.969 130.489C236.251 130.675 236.621 130.769 237.076 130.769C237.687 130.769 238.145 130.589 238.45 130.229C238.76 129.869 238.915 129.331 238.915 128.615V127.426H238.902C238.669 127.9 238.35 128.258 237.945 128.499C237.539 128.736 237.065 128.855 236.523 128.855C235.616 128.855 234.948 128.554 234.52 127.952C234.096 127.351 233.884 126.405 233.884 125.115C233.884 123.808 234.112 122.844 234.568 122.224C235.028 121.6 235.725 121.287 236.659 121.287C237.183 121.287 237.637 121.408 238.02 121.65C238.407 121.887 238.706 122.226 238.915 122.668H238.929C238.929 122.577 238.933 122.436 238.943 122.244C238.952 122.048 238.963 121.864 238.977 121.691C238.99 121.517 239.002 121.422 239.011 121.404H240.18C240.153 121.65 240.139 122.16 240.139 122.935V128.588C240.139 129.627 239.881 130.406 239.366 130.926C238.851 131.446 238.077 131.705 237.042 131.705ZM238.915 125.102C238.915 124.204 238.731 123.498 238.362 122.983C237.997 122.463 237.53 122.203 236.96 122.203C236.331 122.203 235.873 122.431 235.586 122.887C235.299 123.343 235.155 124.081 235.155 125.102C235.155 126.114 235.29 126.84 235.559 127.282C235.828 127.725 236.288 127.946 236.94 127.946C237.523 127.946 237.997 127.693 238.362 127.187C238.731 126.676 238.915 125.981 238.915 125.102ZM243.326 125.362C243.326 126.209 243.501 126.863 243.852 127.323C244.203 127.784 244.716 128.014 245.39 128.014C245.923 128.014 246.35 127.907 246.669 127.693C246.992 127.478 247.211 127.207 247.325 126.879L248.405 127.187C247.963 128.353 246.958 128.937 245.39 128.937C244.296 128.937 243.463 128.611 242.888 127.959C242.319 127.308 242.034 126.339 242.034 125.054C242.034 123.833 242.319 122.896 242.888 122.244C243.463 121.593 244.281 121.267 245.342 121.267C246.432 121.267 247.247 121.595 247.79 122.251C248.332 122.907 248.603 123.89 248.603 125.198V125.362H243.326ZM247.332 124.418C247.263 123.639 247.065 123.072 246.737 122.716C246.409 122.356 245.937 122.176 245.322 122.176C244.725 122.176 244.251 122.377 243.9 122.778C243.554 123.174 243.367 123.721 243.339 124.418H247.332ZM251.783 124.945V128.8H250.553V123.126C250.553 122.866 250.548 122.593 250.539 122.306C250.535 122.019 250.525 121.718 250.512 121.404H251.674C251.683 121.613 251.69 121.802 251.694 121.971C251.703 122.14 251.71 122.288 251.715 122.415C251.719 122.538 251.722 122.643 251.722 122.73C251.726 122.812 251.729 122.873 251.729 122.914H251.756C251.893 122.468 252.043 122.121 252.207 121.875C252.367 121.647 252.549 121.49 252.754 121.404C252.959 121.312 253.212 121.267 253.513 121.267C253.681 121.267 253.848 121.29 254.012 121.335V122.463C253.857 122.418 253.638 122.395 253.355 122.395C252.845 122.395 252.455 122.616 252.187 123.058C251.918 123.495 251.783 124.124 251.783 124.945ZM256.481 125.362C256.481 126.209 256.656 126.863 257.007 127.323C257.358 127.784 257.871 128.014 258.545 128.014C259.079 128.014 259.505 127.907 259.824 127.693C260.147 127.478 260.366 127.207 260.48 126.879L261.56 127.187C261.118 128.353 260.113 128.937 258.545 128.937C257.452 128.937 256.618 128.611 256.043 127.959C255.474 127.308 255.189 126.339 255.189 125.054C255.189 123.833 255.474 122.896 256.043 122.244C256.618 121.593 257.436 121.267 258.497 121.267C259.587 121.267 260.402 121.595 260.945 122.251C261.487 122.907 261.758 123.89 261.758 125.198V125.362H256.481ZM260.487 124.418C260.418 123.639 260.22 123.072 259.892 122.716C259.564 122.356 259.092 122.176 258.477 122.176C257.88 122.176 257.406 122.377 257.055 122.778C256.709 123.174 256.522 123.721 256.495 124.418H260.487ZM264.938 124.514V128.8H263.708V122.983C263.708 122.55 263.703 122.203 263.694 121.944C263.69 121.679 263.68 121.499 263.667 121.404H264.829C264.838 121.49 264.845 121.6 264.849 121.732C264.859 121.864 264.865 122.01 264.87 122.169C264.874 122.329 264.879 122.495 264.884 122.668H264.904C265.187 122.158 265.512 121.798 265.882 121.588C266.255 121.374 266.718 121.267 267.269 121.267C268.081 121.267 268.673 121.474 269.047 121.889C269.425 122.304 269.614 122.964 269.614 123.871V128.8H268.377V124.111C268.377 123.404 268.263 122.912 268.035 122.634C267.807 122.356 267.413 122.217 266.852 122.217C266.26 122.217 265.793 122.42 265.451 122.825C265.109 123.231 264.938 123.794 264.938 124.514ZM274.66 128.937C273.626 128.937 272.835 128.611 272.288 127.959C271.746 127.303 271.475 126.348 271.475 125.095C271.475 123.851 271.748 122.903 272.295 122.251C272.842 121.595 273.626 121.267 274.647 121.267C275.403 121.267 276.03 121.463 276.527 121.855C277.028 122.247 277.342 122.787 277.47 123.475L276.205 123.571C276.141 123.16 275.98 122.835 275.72 122.593C275.46 122.351 275.091 122.231 274.613 122.231C273.961 122.231 273.489 122.447 273.197 122.88C272.906 123.313 272.76 124.042 272.76 125.068C272.76 126.052 272.915 126.781 273.225 127.255C273.535 127.729 274.002 127.966 274.626 127.966C275.064 127.966 275.428 127.848 275.72 127.611C276.016 127.374 276.198 127.009 276.267 126.517L277.511 126.599C277.447 127.073 277.288 127.485 277.032 127.836C276.782 128.187 276.454 128.458 276.048 128.65C275.647 128.841 275.184 128.937 274.66 128.937ZM280.397 118.656V119.831H279.167V118.656H280.397ZM280.397 121.404V128.8H279.167V121.404H280.397ZM284.527 128.937C283.785 128.937 283.226 128.741 282.853 128.349C282.479 127.957 282.292 127.419 282.292 126.736C282.292 125.97 282.543 125.382 283.044 124.972C283.55 124.562 284.363 124.343 285.484 124.316L287.146 124.288V123.885C287.146 123.283 287.018 122.853 286.763 122.593C286.507 122.333 286.106 122.203 285.56 122.203C285.008 122.203 284.607 122.297 284.356 122.484C284.106 122.67 283.955 122.969 283.905 123.379L282.62 123.263C282.83 121.932 283.819 121.267 285.587 121.267C286.517 121.267 287.216 121.481 287.686 121.909C288.155 122.333 288.39 122.948 288.39 123.755V126.941C288.39 127.305 288.438 127.581 288.533 127.768C288.629 127.95 288.811 128.041 289.08 128.041C289.208 128.041 289.342 128.025 289.483 127.993V128.759C289.328 128.795 289.171 128.823 289.012 128.841C288.852 128.859 288.693 128.868 288.533 128.868C288.077 128.868 287.745 128.75 287.535 128.513C287.33 128.271 287.214 127.895 287.187 127.385H287.146C286.831 127.95 286.464 128.351 286.045 128.588C285.63 128.821 285.124 128.937 284.527 128.937ZM287.146 125.15L285.799 125.177C285.225 125.182 284.787 125.241 284.486 125.355C284.186 125.464 283.955 125.633 283.796 125.861C283.636 126.088 283.557 126.387 283.557 126.756C283.557 127.157 283.664 127.467 283.878 127.686C284.097 127.905 284.407 128.014 284.808 128.014C285.263 128.014 285.664 127.911 286.011 127.706C286.362 127.501 286.637 127.221 286.838 126.865C287.043 126.505 287.146 126.136 287.146 125.758V125.15ZM295.548 128.8C295.539 128.75 295.528 128.656 295.514 128.52C295.505 128.378 295.496 128.224 295.487 128.055C295.482 127.886 295.48 127.738 295.48 127.611H295.453C295.225 128.085 294.922 128.424 294.543 128.629C294.17 128.834 293.705 128.937 293.149 128.937C292.215 128.937 291.526 128.622 291.084 127.993C290.647 127.365 290.428 126.412 290.428 125.136C290.428 123.846 290.654 122.88 291.105 122.238C291.561 121.59 292.242 121.267 293.149 121.267C293.709 121.267 294.176 121.369 294.55 121.574C294.924 121.78 295.225 122.105 295.453 122.552H295.466L295.453 121.725V118.656H296.683V127.276C296.683 127.663 296.685 127.984 296.69 128.24C296.699 128.49 296.71 128.677 296.724 128.8H295.548ZM291.72 125.095C291.72 126.129 291.857 126.87 292.13 127.317C292.404 127.763 292.848 127.987 293.463 127.987C294.161 127.987 294.666 127.745 294.981 127.262C295.295 126.779 295.453 126.029 295.453 125.013C295.453 124.033 295.295 123.315 294.981 122.86C294.666 122.404 294.165 122.176 293.477 122.176C292.857 122.176 292.408 122.406 292.13 122.866C291.857 123.322 291.72 124.065 291.72 125.095ZM305.181 125.095C305.181 126.389 304.897 127.353 304.327 127.987C303.757 128.62 302.93 128.937 301.846 128.937C300.765 128.937 299.95 128.609 299.398 127.952C298.847 127.292 298.571 126.339 298.571 125.095C298.571 123.819 298.847 122.862 299.398 122.224C299.954 121.586 300.784 121.267 301.887 121.267C303.017 121.267 303.848 121.579 304.382 122.203C304.915 122.823 305.181 123.787 305.181 125.095ZM303.889 125.095C303.889 124.074 303.737 123.334 303.431 122.873C303.131 122.408 302.623 122.176 301.907 122.176C301.187 122.176 300.665 122.413 300.342 122.887C300.023 123.356 299.863 124.092 299.863 125.095C299.863 126.07 300.02 126.804 300.335 127.296C300.654 127.784 301.153 128.028 301.832 128.028C302.57 128.028 303.096 127.791 303.411 127.317C303.73 126.843 303.889 126.102 303.889 125.095ZM308.327 124.945V128.8H307.097V123.126C307.097 122.866 307.092 122.593 307.083 122.306C307.079 122.019 307.07 121.718 307.056 121.404H308.218C308.227 121.613 308.234 121.802 308.238 121.971C308.248 122.14 308.254 122.288 308.259 122.415C308.264 122.538 308.266 122.643 308.266 122.73C308.27 122.812 308.273 122.873 308.273 122.914H308.3C308.437 122.468 308.587 122.121 308.751 121.875C308.911 121.647 309.093 121.49 309.298 121.404C309.503 121.312 309.756 121.267 310.057 121.267C310.225 121.267 310.392 121.29 310.556 121.335V122.463C310.401 122.418 310.182 122.395 309.9 122.395C309.389 122.395 309 122.616 308.731 123.058C308.462 123.495 308.327 124.124 308.327 124.945ZM321.093 128.8C321.084 128.75 321.072 128.656 321.059 128.52C321.049 128.378 321.04 128.224 321.031 128.055C321.027 127.886 321.024 127.738 321.024 127.611H320.997C320.769 128.085 320.466 128.424 320.088 128.629C319.714 128.834 319.249 128.937 318.693 128.937C317.759 128.937 317.071 128.622 316.629 127.993C316.191 127.365 315.973 126.412 315.973 125.136C315.973 123.846 316.198 122.88 316.649 122.238C317.105 121.59 317.786 121.267 318.693 121.267C319.254 121.267 319.721 121.369 320.095 121.574C320.468 121.78 320.769 122.105 320.997 122.552H321.011L320.997 121.725V118.656H322.228V127.276C322.228 127.663 322.23 127.984 322.234 128.24C322.243 128.49 322.255 128.677 322.269 128.8H321.093ZM317.265 125.095C317.265 126.129 317.401 126.87 317.675 127.317C317.948 127.763 318.393 127.987 319.008 127.987C319.705 127.987 320.211 127.745 320.525 127.262C320.84 126.779 320.997 126.029 320.997 125.013C320.997 124.033 320.84 123.315 320.525 122.86C320.211 122.404 319.71 122.176 319.021 122.176C318.402 122.176 317.953 122.406 317.675 122.866C317.401 123.322 317.265 124.065 317.265 125.095ZM325.414 125.362C325.414 126.209 325.59 126.863 325.941 127.323C326.292 127.784 326.804 128.014 327.479 128.014C328.012 128.014 328.438 127.907 328.757 127.693C329.081 127.478 329.3 127.207 329.413 126.879L330.494 127.187C330.052 128.353 329.047 128.937 327.479 128.937C326.385 128.937 325.551 128.611 324.977 127.959C324.407 127.308 324.122 126.339 324.122 125.054C324.122 123.833 324.407 122.896 324.977 122.244C325.551 121.593 326.369 121.267 327.431 121.267C328.52 121.267 329.336 121.595 329.878 122.251C330.421 122.907 330.692 123.89 330.692 125.198V125.362H325.414ZM329.42 124.418C329.352 123.639 329.154 123.072 328.826 122.716C328.497 122.356 328.026 122.176 327.411 122.176C326.814 122.176 326.34 122.377 325.989 122.778C325.642 123.174 325.455 123.721 325.428 124.418H329.42ZM341.625 128.8C341.616 128.75 341.605 128.656 341.591 128.52C341.582 128.378 341.573 128.224 341.564 128.055C341.559 127.886 341.557 127.738 341.557 127.611H341.529C341.302 128.085 340.999 128.424 340.62 128.629C340.247 128.834 339.782 128.937 339.226 128.937C338.292 128.937 337.603 128.622 337.161 127.993C336.724 127.365 336.505 126.412 336.505 125.136C336.505 123.846 336.731 122.88 337.182 122.238C337.638 121.59 338.319 121.267 339.226 121.267C339.786 121.267 340.253 121.369 340.627 121.574C341.001 121.78 341.302 122.105 341.529 122.552H341.543L341.529 121.725V118.656H342.76V127.276C342.76 127.663 342.762 127.984 342.767 128.24C342.776 128.49 342.787 128.677 342.801 128.8H341.625ZM337.797 125.095C337.797 126.129 337.934 126.87 338.207 127.317C338.481 127.763 338.925 127.987 339.54 127.987C340.238 127.987 340.743 127.745 341.058 127.262C341.372 126.779 341.529 126.029 341.529 125.013C341.529 124.033 341.372 123.315 341.058 122.86C340.743 122.404 340.242 122.176 339.554 122.176C338.934 122.176 338.485 122.406 338.207 122.866C337.934 123.322 337.797 124.065 337.797 125.095ZM351.258 125.095C351.258 126.389 350.974 127.353 350.404 127.987C349.834 128.62 349.007 128.937 347.922 128.937C346.842 128.937 346.027 128.609 345.475 127.952C344.924 127.292 344.648 126.339 344.648 125.095C344.648 123.819 344.924 122.862 345.475 122.224C346.031 121.586 346.861 121.267 347.963 121.267C349.094 121.267 349.925 121.579 350.459 122.203C350.992 122.823 351.258 123.787 351.258 125.095ZM349.966 125.095C349.966 124.074 349.814 123.334 349.508 122.873C349.208 122.408 348.699 122.176 347.984 122.176C347.264 122.176 346.742 122.413 346.419 122.887C346.1 123.356 345.94 124.092 345.94 125.095C345.94 126.07 346.097 126.804 346.412 127.296C346.731 127.784 347.23 128.028 347.909 128.028C348.647 128.028 349.173 127.791 349.488 127.317C349.807 126.843 349.966 126.102 349.966 125.095ZM355.983 128.937C354.949 128.937 354.158 128.611 353.611 127.959C353.069 127.303 352.798 126.348 352.798 125.095C352.798 123.851 353.071 122.903 353.618 122.251C354.165 121.595 354.949 121.267 355.97 121.267C356.726 121.267 357.353 121.463 357.85 121.855C358.351 122.247 358.665 122.787 358.793 123.475L357.528 123.571C357.465 123.16 357.303 122.835 357.043 122.593C356.783 122.351 356.414 122.231 355.936 122.231C355.284 122.231 354.812 122.447 354.521 122.88C354.229 123.313 354.083 124.042 354.083 125.068C354.083 126.052 354.238 126.781 354.548 127.255C354.858 127.729 355.325 127.966 355.949 127.966C356.387 127.966 356.751 127.848 357.043 127.611C357.339 127.374 357.521 127.009 357.59 126.517L358.834 126.599C358.77 127.073 358.611 127.485 358.355 127.836C358.105 128.187 357.777 128.458 357.371 128.65C356.97 128.841 356.507 128.937 355.983 128.937ZM365.172 127.535C364.89 128.046 364.562 128.408 364.188 128.622C363.819 128.832 363.358 128.937 362.807 128.937C361.996 128.937 361.401 128.736 361.023 128.335C360.649 127.93 360.462 127.262 360.462 126.332V121.404H361.7V126.093C361.7 126.831 361.814 127.333 362.041 127.597C362.274 127.857 362.668 127.987 363.224 127.987C363.816 127.987 364.284 127.784 364.625 127.378C364.967 126.973 365.138 126.41 365.138 125.69V121.404H366.369V127.221C366.369 127.649 366.371 127.996 366.375 128.26C366.385 128.524 366.396 128.704 366.41 128.8H365.247C365.243 128.777 365.234 128.67 365.22 128.479C365.211 128.287 365.202 127.973 365.193 127.535H365.172ZM369.89 124.514V128.8H368.667V122.983C368.667 122.55 368.662 122.203 368.653 121.944C368.649 121.679 368.639 121.499 368.626 121.404H369.788C369.797 121.504 369.806 121.627 369.815 121.773C369.824 121.919 369.831 122.071 369.836 122.231C369.84 122.386 369.843 122.531 369.843 122.668H369.863C370.127 122.144 370.43 121.78 370.772 121.574C371.114 121.369 371.531 121.267 372.023 121.267C372.584 121.267 373.026 121.378 373.349 121.602C373.678 121.825 373.905 122.181 374.033 122.668H374.054C374.309 122.171 374.616 121.814 374.976 121.595C375.341 121.376 375.781 121.267 376.296 121.267C377.043 121.267 377.585 121.47 377.923 121.875C378.264 122.281 378.435 122.946 378.435 123.871V128.8H377.219V124.111C377.219 123.395 377.121 122.901 376.925 122.627C376.729 122.354 376.375 122.217 375.865 122.217C375.327 122.217 374.908 122.418 374.607 122.819C374.311 123.215 374.163 123.78 374.163 124.514V128.8H372.946V124.111C372.946 123.395 372.848 122.901 372.652 122.627C372.456 122.354 372.103 122.217 371.593 122.217C371.068 122.217 370.654 122.418 370.348 122.819C370.043 123.22 369.89 123.785 369.89 124.514ZM381.595 125.362C381.595 126.209 381.77 126.863 382.121 127.323C382.472 127.784 382.985 128.014 383.659 128.014C384.193 128.014 384.619 127.907 384.938 127.693C385.261 127.478 385.48 127.207 385.594 126.879L386.674 127.187C386.232 128.353 385.227 128.937 383.659 128.937C382.566 128.937 381.732 128.611 381.157 127.959C380.588 127.308 380.303 126.339 380.303 125.054C380.303 123.833 380.588 122.896 381.157 122.244C381.732 121.593 382.55 121.267 383.612 121.267C384.701 121.267 385.516 121.595 386.059 122.251C386.601 122.907 386.872 123.89 386.872 125.198V125.362H381.595ZM385.601 124.418C385.532 123.639 385.334 123.072 385.006 122.716C384.678 122.356 384.206 122.176 383.591 122.176C382.994 122.176 382.52 122.377 382.169 122.778C381.823 123.174 381.636 123.721 381.609 124.418H385.601ZM390.052 124.514V128.8H388.822V122.983C388.822 122.55 388.817 122.203 388.808 121.944C388.804 121.679 388.795 121.499 388.781 121.404H389.943C389.952 121.49 389.959 121.6 389.963 121.732C389.973 121.864 389.979 122.01 389.984 122.169C389.989 122.329 389.993 122.495 389.998 122.668H390.018C390.301 122.158 390.627 121.798 390.996 121.588C391.369 121.374 391.832 121.267 392.383 121.267C393.195 121.267 393.787 121.474 394.161 121.889C394.539 122.304 394.728 122.964 394.728 123.871V128.8H393.491V124.111C393.491 123.404 393.377 122.912 393.149 122.634C392.921 122.356 392.527 122.217 391.966 122.217C391.374 122.217 390.907 122.42 390.565 122.825C390.223 123.231 390.052 123.794 390.052 124.514ZM399.781 128.745C399.38 128.855 398.965 128.909 398.537 128.909C398.045 128.909 397.676 128.77 397.43 128.492C397.184 128.21 397.061 127.791 397.061 127.235V122.299H396.206V121.404H397.108L397.471 119.749H398.291V121.404H399.658V122.299H398.291V126.968C398.291 127.323 398.348 127.574 398.462 127.72C398.58 127.861 398.783 127.932 399.07 127.932C399.225 127.932 399.462 127.9 399.781 127.836V128.745ZM407.439 125.095C407.439 126.389 407.154 127.353 406.584 127.987C406.015 128.62 405.188 128.937 404.103 128.937C403.023 128.937 402.207 128.609 401.656 127.952C401.104 127.292 400.829 126.339 400.829 125.095C400.829 123.819 401.104 122.862 401.656 122.224C402.212 121.586 403.041 121.267 404.144 121.267C405.274 121.267 406.106 121.579 406.639 122.203C407.172 122.823 407.439 123.787 407.439 125.095ZM406.147 125.095C406.147 124.074 405.994 123.334 405.689 122.873C405.388 122.408 404.88 122.176 404.164 122.176C403.444 122.176 402.923 122.413 402.599 122.887C402.28 123.356 402.121 124.092 402.121 125.095C402.121 126.07 402.278 126.804 402.592 127.296C402.911 127.784 403.41 128.028 404.089 128.028C404.828 128.028 405.354 127.791 405.668 127.317C405.987 126.843 406.147 126.102 406.147 125.095ZM414.878 126.756C414.878 127.453 414.613 127.991 414.085 128.369C413.561 128.748 412.825 128.937 411.877 128.937C410.956 128.937 410.245 128.786 409.744 128.486C409.247 128.18 408.924 127.706 408.773 127.064L409.86 126.852C409.965 127.248 410.181 127.54 410.51 127.727C410.838 127.909 411.293 128 411.877 128C412.501 128 412.957 127.905 413.244 127.713C413.536 127.522 413.681 127.235 413.681 126.852C413.681 126.56 413.581 126.323 413.381 126.141C413.18 125.959 412.857 125.808 412.41 125.69C411.881 125.548 411.46 125.432 411.145 125.341C410.835 125.25 410.596 125.172 410.428 125.109C410.259 125.04 410.124 124.976 410.024 124.917C409.723 124.744 409.489 124.532 409.32 124.281C409.151 124.031 409.067 123.723 409.067 123.359C409.067 122.684 409.306 122.171 409.785 121.821C410.268 121.465 410.97 121.287 411.89 121.287C412.706 121.287 413.353 121.431 413.832 121.718C414.315 122.005 414.62 122.465 414.748 123.099L413.64 123.236C413.572 122.907 413.387 122.657 413.087 122.484C412.79 122.306 412.392 122.217 411.89 122.217C411.334 122.217 410.924 122.301 410.66 122.47C410.396 122.639 410.263 122.894 410.263 123.236C410.263 123.486 410.339 123.694 410.489 123.858C410.639 124.017 410.927 124.149 411.35 124.254C411.92 124.391 412.462 124.541 412.977 124.705C413.492 124.865 413.861 125.024 414.085 125.184C414.345 125.371 414.54 125.592 414.673 125.847C414.809 126.098 414.878 126.401 414.878 126.756Z" fill="#62748E"/>
<g opacity="0.3" filter="url(#filter0_f_1_137)">
<path d="M48 64C48 55.1634 55.1634 48 64 48H144C152.837 48 160 55.1634 160 64V144C160 152.837 152.837 160 144 160H64C55.1634 160 48 152.837 48 144V64Z" fill="#2B7FFF"/>
</g>
<path d="M79.056 68.056C84.92 62.2 94.344 62.2 113.2 62.2C132.056 62.2 141.484 62.2 147.34 68.056C153.2 73.92 153.2 83.344 153.2 102.2C153.2 121.056 153.2 130.484 147.34 136.34C141.488 142.2 132.056 142.2 113.2 142.2C94.344 142.2 84.916 142.2 79.056 136.34C73.2 130.488 73.2 121.056 73.2 102.2C73.2 83.344 73.2 73.916 79.056 68.056Z" fill="url(#paint0_linear_1_137)"/>
<path d="M101.056 81.6519C110.008 73.0519 124.48 73.0519 133.432 81.6519C135.569 83.6742 137.27 86.1109 138.433 88.813C139.596 91.5152 140.196 94.4261 140.196 97.3679C140.196 100.31 139.596 103.221 138.433 105.923C137.27 108.625 135.569 111.062 133.432 113.084L124.616 121.556C122.151 123.896 118.881 125.201 115.482 125.201C112.083 125.201 108.813 123.896 106.348 121.556C105.134 120.405 104.167 119.018 103.506 117.481C102.846 115.944 102.505 114.289 102.505 112.616C102.505 110.943 102.846 109.287 103.506 107.75C104.167 106.213 105.134 104.827 106.348 103.676L113.404 96.8999C113.685 96.6135 114.021 96.3863 114.391 96.232C114.762 96.0776 115.159 95.9992 115.561 96.0013C115.962 96.0033 116.359 96.0859 116.728 96.2441C117.097 96.4024 117.43 96.633 117.708 96.9223C117.986 97.2117 118.203 97.5539 118.347 97.9287C118.49 98.3035 118.557 98.7033 118.543 99.1044C118.53 99.5055 118.435 99.8998 118.267 100.264C118.098 100.628 117.857 100.954 117.56 101.224L110.504 108.004C109.873 108.595 109.37 109.309 109.026 110.103C108.683 110.896 108.505 111.751 108.505 112.616C108.505 113.48 108.683 114.336 109.026 115.129C109.37 115.922 109.873 116.637 110.504 117.228C111.853 118.491 113.632 119.194 115.48 119.194C117.328 119.194 119.107 118.491 120.456 117.228L129.276 108.76C130.831 107.298 132.07 105.532 132.916 103.573C133.763 101.614 134.2 99.5023 134.2 97.3679C134.2 95.2335 133.763 93.1218 132.916 91.1626C132.07 89.2034 130.831 87.4383 129.276 85.9759C122.644 79.6079 111.844 79.6079 105.212 85.9759L96.392 94.4479C95.0684 95.6923 94.0135 97.1945 93.2925 98.8621C92.5714 100.53 92.1994 102.327 92.1994 104.144C92.1994 105.961 92.5714 107.758 93.2925 109.426C94.0135 111.093 95.0684 112.596 96.392 113.84C96.966 114.391 97.2974 115.148 97.3136 115.943C97.3297 116.739 97.0291 117.508 96.478 118.082C95.9269 118.656 95.1704 118.987 94.3748 119.003C93.5793 119.02 92.81 118.719 92.236 118.168C90.3293 116.364 88.8105 114.189 87.7726 111.778C86.7346 109.367 86.1993 106.769 86.1993 104.144C86.1993 101.519 86.7346 98.9211 87.7726 96.5099C88.8105 94.0986 90.3293 91.9243 92.236 90.1199L101.056 81.6519Z" fill="white"/>
<defs>
<filter id="filter0_f_1_137" x="0" y="0" width="208" height="208" filterUnits="userSpaceOnUse" color-interpolation-filters="sRGB">
<feFlood flood-opacity="0" result="BackgroundImageFix"/>
<feBlend mode="normal" in="SourceGraphic" in2="BackgroundImageFix" result="shape"/>
<feGaussianBlur stdDeviation="24" result="effect1_foregroundBlur_1_137"/>
</filter>
<linearGradient id="paint0_linear_1_137" x1="73.2" y1="62.2" x2="153.2" y2="142.2" gradientUnits="userSpaceOnUse">
<stop stop-color="#155DFC"/>
<stop offset="1" stop-color="#1447E6"/>
</linearGradient>
</defs>
</svg>
